<mxfile host="app.diagrams.net" modified="2020-04-03T23:41:55.813Z" agent="5.0 (Windows)" etag="X_yQ6_B8o-hRtBNryEsx" version="12.9.7" type="github">
  <diagram id="I5HIQt-uZzFvG9ge-mUW" name="Page-1">
    <mxGraphModel dx="2249" dy="791" grid="1" gridSize="10" guides="1" tooltips="1" connect="1" arrows="1" fold="1" page="1" pageScale="1" pageWidth="827" pageHeight="1169" math="0" shadow="0">
      <root>
        <mxCell id="0" />
        <mxCell id="1" parent="0" />
        <mxCell id="Q04cyboe-cRlrqikKD0N-1" value="Utente" style="whiteSpace=wrap;html=1;align=center;" parent="1" vertex="1">
          <mxGeometry x="580" y="50" width="100" height="40" as="geometry" />
        </mxCell>
        <mxCell id="Q04cyboe-cRlrqikKD0N-2" value="possiede" style="shape=rhombus;perimeter=rhombusPerimeter;whiteSpace=wrap;html=1;align=center;" parent="1" vertex="1">
          <mxGeometry x="750" y="40" width="120" height="60" as="geometry" />
        </mxCell>
        <mxCell id="Q04cyboe-cRlrqikKD0N-3" value="Elemento" style="whiteSpace=wrap;html=1;align=center;" parent="1" vertex="1">
          <mxGeometry x="940" y="50" width="100" height="40" as="geometry" />
        </mxCell>
        <mxCell id="Q04cyboe-cRlrqikKD0N-4" style="edgeStyle=orthogonalEdgeStyle;rounded=0;orthogonalLoop=1;jettySize=auto;html=1;exitX=0.5;exitY=0;exitDx=0;exitDy=0;entryX=0.5;entryY=1;entryDx=0;entryDy=0;strokeColor=#0000FF;" parent="1" source="Q04cyboe-cRlrqikKD0N-5" target="Q04cyboe-cRlrqikKD0N-3" edge="1">
          <mxGeometry relative="1" as="geometry">
            <Array as="points">
              <mxPoint x="290" y="140" />
              <mxPoint x="990" y="140" />
            </Array>
          </mxGeometry>
        </mxCell>
        <mxCell id="Q04cyboe-cRlrqikKD0N-5" value="Elemento (libro)" style="whiteSpace=wrap;html=1;align=center;" parent="1" vertex="1">
          <mxGeometry x="240" y="200" width="100" height="40" as="geometry" />
        </mxCell>
        <mxCell id="Q04cyboe-cRlrqikKD0N-6" style="edgeStyle=orthogonalEdgeStyle;rounded=0;orthogonalLoop=1;jettySize=auto;html=1;exitX=0.5;exitY=0;exitDx=0;exitDy=0;entryX=0.5;entryY=1;entryDx=0;entryDy=0;strokeColor=#0000FF;" parent="1" source="Q04cyboe-cRlrqikKD0N-7" target="Q04cyboe-cRlrqikKD0N-3" edge="1">
          <mxGeometry relative="1" as="geometry" />
        </mxCell>
        <mxCell id="Q04cyboe-cRlrqikKD0N-7" value="Elemento (film)" style="whiteSpace=wrap;html=1;align=center;" parent="1" vertex="1">
          <mxGeometry x="940" y="200" width="100" height="40" as="geometry" />
        </mxCell>
        <mxCell id="Q04cyboe-cRlrqikKD0N-8" style="edgeStyle=orthogonalEdgeStyle;rounded=0;orthogonalLoop=1;jettySize=auto;html=1;entryX=0.5;entryY=1;entryDx=0;entryDy=0;strokeColor=#0000FF;" parent="1" source="Q04cyboe-cRlrqikKD0N-9" target="Q04cyboe-cRlrqikKD0N-3" edge="1">
          <mxGeometry relative="1" as="geometry">
            <mxPoint x="1090" y="100" as="targetPoint" />
            <Array as="points">
              <mxPoint x="1700" y="140" />
              <mxPoint x="990" y="140" />
            </Array>
          </mxGeometry>
        </mxCell>
        <mxCell id="Q04cyboe-cRlrqikKD0N-9" value="Elemento (gioco)" style="whiteSpace=wrap;html=1;align=center;" parent="1" vertex="1">
          <mxGeometry x="1650" y="190" width="100" height="40" as="geometry" />
        </mxCell>
        <mxCell id="Q04cyboe-cRlrqikKD0N-10" value="" style="endArrow=none;html=1;rounded=0;dashed=1;dashPattern=1 2;entryX=0;entryY=0.5;entryDx=0;entryDy=0;exitX=1;exitY=0.5;exitDx=0;exitDy=0;" parent="1" source="Q04cyboe-cRlrqikKD0N-1" target="Q04cyboe-cRlrqikKD0N-2" edge="1">
          <mxGeometry relative="1" as="geometry">
            <mxPoint x="640" y="170" as="sourcePoint" />
            <mxPoint x="800" y="170" as="targetPoint" />
          </mxGeometry>
        </mxCell>
        <mxCell id="Q04cyboe-cRlrqikKD0N-11" value="N" style="resizable=0;html=1;align=right;verticalAlign=bottom;" parent="Q04cyboe-cRlrqikKD0N-10" connectable="0" vertex="1">
          <mxGeometry x="1" relative="1" as="geometry" />
        </mxCell>
        <mxCell id="Q04cyboe-cRlrqikKD0N-12" value="" style="endArrow=none;html=1;rounded=0;entryX=1;entryY=0.5;entryDx=0;entryDy=0;exitX=0;exitY=0.5;exitDx=0;exitDy=0;" parent="1" source="Q04cyboe-cRlrqikKD0N-3" target="Q04cyboe-cRlrqikKD0N-2" edge="1">
          <mxGeometry relative="1" as="geometry">
            <mxPoint x="700" y="320" as="sourcePoint" />
            <mxPoint x="860" y="320" as="targetPoint" />
          </mxGeometry>
        </mxCell>
        <mxCell id="Q04cyboe-cRlrqikKD0N-13" value="1" style="resizable=0;html=1;align=right;verticalAlign=bottom;" parent="Q04cyboe-cRlrqikKD0N-12" connectable="0" vertex="1">
          <mxGeometry x="1" relative="1" as="geometry" />
        </mxCell>
        <mxCell id="Q04cyboe-cRlrqikKD0N-14" value="riguardante" style="shape=rhombus;perimeter=rhombusPerimeter;whiteSpace=wrap;html=1;align=center;" parent="1" vertex="1">
          <mxGeometry x="1110" y="40" width="120" height="60" as="geometry" />
        </mxCell>
        <mxCell id="Q04cyboe-cRlrqikKD0N-15" value="Recensione" style="whiteSpace=wrap;html=1;align=center;" parent="1" vertex="1">
          <mxGeometry x="1300" y="50" width="100" height="40" as="geometry" />
        </mxCell>
        <mxCell id="Q04cyboe-cRlrqikKD0N-16" value="" style="endArrow=none;html=1;rounded=0;dashed=1;dashPattern=1 2;strokeColor=#000000;entryX=0;entryY=0.5;entryDx=0;entryDy=0;exitX=1;exitY=0.5;exitDx=0;exitDy=0;" parent="1" source="Q04cyboe-cRlrqikKD0N-3" target="Q04cyboe-cRlrqikKD0N-14" edge="1">
          <mxGeometry relative="1" as="geometry">
            <mxPoint x="890" y="300" as="sourcePoint" />
            <mxPoint x="1050" y="300" as="targetPoint" />
          </mxGeometry>
        </mxCell>
        <mxCell id="Q04cyboe-cRlrqikKD0N-17" value="1" style="resizable=0;html=1;align=right;verticalAlign=bottom;" parent="Q04cyboe-cRlrqikKD0N-16" connectable="0" vertex="1">
          <mxGeometry x="1" relative="1" as="geometry" />
        </mxCell>
        <mxCell id="Q04cyboe-cRlrqikKD0N-18" value="" style="endArrow=none;html=1;rounded=0;strokeColor=#FF7F00;entryX=1;entryY=0.5;entryDx=0;entryDy=0;exitX=0;exitY=0.5;exitDx=0;exitDy=0;" parent="1" source="Q04cyboe-cRlrqikKD0N-15" target="Q04cyboe-cRlrqikKD0N-14" edge="1">
          <mxGeometry relative="1" as="geometry">
            <mxPoint x="890" y="300" as="sourcePoint" />
            <mxPoint x="1050" y="300" as="targetPoint" />
          </mxGeometry>
        </mxCell>
        <mxCell id="Q04cyboe-cRlrqikKD0N-19" value="1" style="resizable=0;html=1;align=right;verticalAlign=bottom;fontColor=#FF7F00;" parent="Q04cyboe-cRlrqikKD0N-18" connectable="0" vertex="1">
          <mxGeometry x="1" relative="1" as="geometry" />
        </mxCell>
        <mxCell id="Q04cyboe-cRlrqikKD0N-20" value="Edizione" style="whiteSpace=wrap;html=1;align=center;" parent="1" vertex="1">
          <mxGeometry x="240" y="390" width="100" height="40" as="geometry" />
        </mxCell>
        <mxCell id="Q04cyboe-cRlrqikKD0N-21" value="istanza di" style="shape=rhombus;perimeter=rhombusPerimeter;whiteSpace=wrap;html=1;align=center;" parent="1" vertex="1">
          <mxGeometry x="230" y="280" width="120" height="60" as="geometry" />
        </mxCell>
        <mxCell id="Q04cyboe-cRlrqikKD0N-22" style="edgeStyle=orthogonalEdgeStyle;rounded=0;orthogonalLoop=1;jettySize=auto;html=1;entryX=0;entryY=0.5;entryDx=0;entryDy=0;strokeColor=#0000FF;" parent="1" source="Q04cyboe-cRlrqikKD0N-23" target="Q04cyboe-cRlrqikKD0N-20" edge="1">
          <mxGeometry relative="1" as="geometry">
            <Array as="points">
              <mxPoint x="190" y="370" />
              <mxPoint x="190" y="410" />
            </Array>
          </mxGeometry>
        </mxCell>
        <mxCell id="Q04cyboe-cRlrqikKD0N-23" value="Edizione (libro)" style="whiteSpace=wrap;html=1;align=center;" parent="1" vertex="1">
          <mxGeometry x="50" y="350" width="100" height="40" as="geometry" />
        </mxCell>
        <mxCell id="Q04cyboe-cRlrqikKD0N-24" value="Edizione (audiolibro)" style="whiteSpace=wrap;html=1;align=center;" parent="1" vertex="1">
          <mxGeometry x="50" y="430" width="100" height="40" as="geometry" />
        </mxCell>
        <mxCell id="Q04cyboe-cRlrqikKD0N-25" value="" style="endArrow=none;html=1;rounded=0;exitX=0.5;exitY=1;exitDx=0;exitDy=0;entryX=0.5;entryY=0;entryDx=0;entryDy=0;" parent="1" source="Q04cyboe-cRlrqikKD0N-5" target="Q04cyboe-cRlrqikKD0N-21" edge="1">
          <mxGeometry relative="1" as="geometry">
            <mxPoint x="560" y="370" as="sourcePoint" />
            <mxPoint x="720" y="370" as="targetPoint" />
          </mxGeometry>
        </mxCell>
        <mxCell id="Q04cyboe-cRlrqikKD0N-26" value="1" style="resizable=0;html=1;align=right;verticalAlign=bottom;" parent="Q04cyboe-cRlrqikKD0N-25" connectable="0" vertex="1">
          <mxGeometry x="1" relative="1" as="geometry" />
        </mxCell>
        <mxCell id="Q04cyboe-cRlrqikKD0N-27" value="" style="endArrow=none;html=1;rounded=0;dashed=1;dashPattern=1 2;entryX=0.5;entryY=1;entryDx=0;entryDy=0;exitX=0.5;exitY=0;exitDx=0;exitDy=0;" parent="1" source="Q04cyboe-cRlrqikKD0N-20" target="Q04cyboe-cRlrqikKD0N-21" edge="1">
          <mxGeometry relative="1" as="geometry">
            <mxPoint x="290" y="380" as="sourcePoint" />
            <mxPoint x="460" y="370" as="targetPoint" />
          </mxGeometry>
        </mxCell>
        <mxCell id="Q04cyboe-cRlrqikKD0N-28" value="N" style="resizable=0;html=1;align=right;verticalAlign=bottom;" parent="Q04cyboe-cRlrqikKD0N-27" connectable="0" vertex="1">
          <mxGeometry x="1" relative="1" as="geometry" />
        </mxCell>
        <mxCell id="Q04cyboe-cRlrqikKD0N-29" style="edgeStyle=orthogonalEdgeStyle;rounded=0;orthogonalLoop=1;jettySize=auto;html=1;entryX=0;entryY=0.5;entryDx=0;entryDy=0;exitX=1;exitY=0.5;exitDx=0;exitDy=0;strokeColor=#0000FF;" parent="1" source="Q04cyboe-cRlrqikKD0N-24" target="Q04cyboe-cRlrqikKD0N-20" edge="1">
          <mxGeometry relative="1" as="geometry">
            <mxPoint x="400" y="490" as="sourcePoint" />
            <mxPoint x="450" y="380" as="targetPoint" />
            <Array as="points">
              <mxPoint x="190" y="450" />
              <mxPoint x="190" y="410" />
            </Array>
          </mxGeometry>
        </mxCell>
        <mxCell id="Q04cyboe-cRlrqikKD0N-30" value="Libro" style="whiteSpace=wrap;html=1;align=center;" parent="1" vertex="1">
          <mxGeometry x="240" y="550" width="100" height="40" as="geometry" />
        </mxCell>
        <mxCell id="Q04cyboe-cRlrqikKD0N-31" value="relativa a" style="shape=rhombus;perimeter=rhombusPerimeter;whiteSpace=wrap;html=1;align=center;" parent="1" vertex="1">
          <mxGeometry x="230" y="460" width="120" height="60" as="geometry" />
        </mxCell>
        <mxCell id="Q04cyboe-cRlrqikKD0N-32" value="" style="endArrow=none;html=1;rounded=0;strokeColor=#000000;entryX=0.5;entryY=1;entryDx=0;entryDy=0;exitX=0.5;exitY=0;exitDx=0;exitDy=0;" parent="1" source="Q04cyboe-cRlrqikKD0N-30" target="Q04cyboe-cRlrqikKD0N-31" edge="1">
          <mxGeometry relative="1" as="geometry">
            <mxPoint x="330" y="380" as="sourcePoint" />
            <mxPoint x="490" y="380" as="targetPoint" />
          </mxGeometry>
        </mxCell>
        <mxCell id="Q04cyboe-cRlrqikKD0N-33" value="N" style="resizable=0;html=1;align=right;verticalAlign=bottom;" parent="Q04cyboe-cRlrqikKD0N-32" connectable="0" vertex="1">
          <mxGeometry x="1" relative="1" as="geometry" />
        </mxCell>
        <mxCell id="Q04cyboe-cRlrqikKD0N-34" value="" style="endArrow=none;html=1;rounded=0;strokeColor=#000000;entryX=0.5;entryY=0;entryDx=0;entryDy=0;exitX=0.5;exitY=1;exitDx=0;exitDy=0;" parent="1" source="Q04cyboe-cRlrqikKD0N-20" target="Q04cyboe-cRlrqikKD0N-31" edge="1">
          <mxGeometry relative="1" as="geometry">
            <mxPoint x="330" y="380" as="sourcePoint" />
            <mxPoint x="490" y="380" as="targetPoint" />
          </mxGeometry>
        </mxCell>
        <mxCell id="Q04cyboe-cRlrqikKD0N-35" value="1" style="resizable=0;html=1;align=right;verticalAlign=bottom;" parent="Q04cyboe-cRlrqikKD0N-34" connectable="0" vertex="1">
          <mxGeometry x="1" relative="1" as="geometry">
            <mxPoint x="0.03" as="offset" />
          </mxGeometry>
        </mxCell>
        <mxCell id="Q04cyboe-cRlrqikKD0N-36" value="Autore" style="whiteSpace=wrap;html=1;align=center;" parent="1" vertex="1">
          <mxGeometry x="240" y="740" width="100" height="40" as="geometry" />
        </mxCell>
        <mxCell id="Q04cyboe-cRlrqikKD0N-37" value="Scritto da" style="shape=rhombus;perimeter=rhombusPerimeter;whiteSpace=wrap;html=1;align=center;" parent="1" vertex="1">
          <mxGeometry x="230" y="640" width="120" height="60" as="geometry" />
        </mxCell>
        <mxCell id="Q04cyboe-cRlrqikKD0N-38" value="" style="endArrow=none;html=1;rounded=0;strokeColor=#000000;entryX=0.5;entryY=1;entryDx=0;entryDy=0;exitX=0.5;exitY=0;exitDx=0;exitDy=0;" parent="1" source="Q04cyboe-cRlrqikKD0N-36" target="Q04cyboe-cRlrqikKD0N-37" edge="1">
          <mxGeometry relative="1" as="geometry">
            <mxPoint x="-70" y="570" as="sourcePoint" />
            <mxPoint x="140" y="710" as="targetPoint" />
          </mxGeometry>
        </mxCell>
        <mxCell id="Q04cyboe-cRlrqikKD0N-39" value="N" style="resizable=0;html=1;align=right;verticalAlign=bottom;" parent="Q04cyboe-cRlrqikKD0N-38" connectable="0" vertex="1">
          <mxGeometry x="1" relative="1" as="geometry" />
        </mxCell>
        <mxCell id="Q04cyboe-cRlrqikKD0N-40" value="pubblicata da" style="shape=rhombus;perimeter=rhombusPerimeter;whiteSpace=wrap;html=1;align=center;" parent="1" vertex="1">
          <mxGeometry x="400" y="380" width="120" height="60" as="geometry" />
        </mxCell>
        <mxCell id="Q04cyboe-cRlrqikKD0N-41" value="Editore" style="whiteSpace=wrap;html=1;align=center;" parent="1" vertex="1">
          <mxGeometry x="410" y="480" width="100" height="40" as="geometry" />
        </mxCell>
        <mxCell id="Q04cyboe-cRlrqikKD0N-42" value="" style="endArrow=none;html=1;rounded=0;strokeColor=#000000;entryX=0.5;entryY=1;entryDx=0;entryDy=0;exitX=0.5;exitY=0;exitDx=0;exitDy=0;" parent="1" source="Q04cyboe-cRlrqikKD0N-41" target="Q04cyboe-cRlrqikKD0N-40" edge="1">
          <mxGeometry relative="1" as="geometry">
            <mxPoint x="320" y="470" as="sourcePoint" />
            <mxPoint x="480" y="470" as="targetPoint" />
          </mxGeometry>
        </mxCell>
        <mxCell id="Q04cyboe-cRlrqikKD0N-43" value="N" style="resizable=0;html=1;align=right;verticalAlign=bottom;" parent="Q04cyboe-cRlrqikKD0N-42" connectable="0" vertex="1">
          <mxGeometry x="1" relative="1" as="geometry" />
        </mxCell>
        <mxCell id="Q04cyboe-cRlrqikKD0N-44" value="narrata da" style="shape=rhombus;perimeter=rhombusPerimeter;whiteSpace=wrap;html=1;align=center;strokeColor=#000000;" parent="1" vertex="1">
          <mxGeometry x="40" y="520" width="120" height="60" as="geometry" />
        </mxCell>
        <mxCell id="Q04cyboe-cRlrqikKD0N-45" value="Narratore" style="whiteSpace=wrap;html=1;align=center;strokeColor=#000000;" parent="1" vertex="1">
          <mxGeometry x="50" y="620" width="100" height="40" as="geometry" />
        </mxCell>
        <mxCell id="Q04cyboe-cRlrqikKD0N-46" value="" style="endArrow=none;html=1;rounded=0;strokeColor=#000000;entryX=0.5;entryY=1;entryDx=0;entryDy=0;exitX=0.5;exitY=0;exitDx=0;exitDy=0;" parent="1" source="Q04cyboe-cRlrqikKD0N-45" target="Q04cyboe-cRlrqikKD0N-44" edge="1">
          <mxGeometry relative="1" as="geometry">
            <mxPoint x="400" y="440" as="sourcePoint" />
            <mxPoint x="560" y="440" as="targetPoint" />
          </mxGeometry>
        </mxCell>
        <mxCell id="Q04cyboe-cRlrqikKD0N-47" value="N" style="resizable=0;html=1;align=right;verticalAlign=bottom;" parent="Q04cyboe-cRlrqikKD0N-46" connectable="0" vertex="1">
          <mxGeometry x="1" relative="1" as="geometry" />
        </mxCell>
        <mxCell id="Q04cyboe-cRlrqikKD0N-48" value="Edizione" style="whiteSpace=wrap;html=1;align=center;" parent="1" vertex="1">
          <mxGeometry x="1650" y="380" width="100" height="40" as="geometry" />
        </mxCell>
        <mxCell id="Q04cyboe-cRlrqikKD0N-49" value="Genere" style="whiteSpace=wrap;html=1;align=center;" parent="1" vertex="1">
          <mxGeometry x="1650" y="750" width="100" height="40" as="geometry" />
        </mxCell>
        <mxCell id="Q04cyboe-cRlrqikKD0N-50" value="pubblicato da" style="shape=rhombus;perimeter=rhombusPerimeter;whiteSpace=wrap;html=1;align=center;" parent="1" vertex="1">
          <mxGeometry x="1830" y="610" width="120" height="60" as="geometry" />
        </mxCell>
        <mxCell id="Q04cyboe-cRlrqikKD0N-51" value="appartiene a" style="shape=rhombus;perimeter=rhombusPerimeter;whiteSpace=wrap;html=1;align=center;" parent="1" vertex="1">
          <mxGeometry x="1640" y="650" width="120" height="60" as="geometry" />
        </mxCell>
        <mxCell id="Q04cyboe-cRlrqikKD0N-52" value="&lt;div&gt;sviluppato da&lt;/div&gt;" style="shape=rhombus;perimeter=rhombusPerimeter;whiteSpace=wrap;html=1;align=center;" parent="1" vertex="1">
          <mxGeometry x="1830" y="520" width="120" height="60" as="geometry" />
        </mxCell>
        <mxCell id="Q04cyboe-cRlrqikKD0N-53" value="istanza di" style="shape=rhombus;perimeter=rhombusPerimeter;whiteSpace=wrap;html=1;align=center;" parent="1" vertex="1">
          <mxGeometry x="1640" y="270" width="120" height="60" as="geometry" />
        </mxCell>
        <mxCell id="Q04cyboe-cRlrqikKD0N-54" value="Localizzazione" style="whiteSpace=wrap;html=1;align=center;" parent="1" vertex="1">
          <mxGeometry x="1010" y="570" width="100" height="40" as="geometry" />
        </mxCell>
        <mxCell id="Q04cyboe-cRlrqikKD0N-55" value="Studio" style="whiteSpace=wrap;html=1;align=center;" parent="1" vertex="1">
          <mxGeometry x="740" y="480" width="100" height="40" as="geometry" />
        </mxCell>
        <mxCell id="Q04cyboe-cRlrqikKD0N-56" value="Ruolo" style="whiteSpace=wrap;html=1;align=center;" parent="1" vertex="1">
          <mxGeometry x="1320" y="390" width="100" height="40" as="geometry" />
        </mxCell>
        <mxCell id="Q04cyboe-cRlrqikKD0N-57" value="Cast" style="whiteSpace=wrap;html=1;align=center;" parent="1" vertex="1">
          <mxGeometry x="1150" y="480" width="100" height="40" as="geometry" />
        </mxCell>
        <mxCell id="Q04cyboe-cRlrqikKD0N-58" value="Genere" style="whiteSpace=wrap;html=1;align=center;" parent="1" vertex="1">
          <mxGeometry x="880" y="570" width="100" height="40" as="geometry" />
        </mxCell>
        <mxCell id="Q04cyboe-cRlrqikKD0N-59" value="Film" style="whiteSpace=wrap;html=1;align=center;" parent="1" vertex="1">
          <mxGeometry x="940" y="390" width="100" height="40" as="geometry" />
        </mxCell>
        <mxCell id="Q04cyboe-cRlrqikKD0N-60" value="Gioco" style="whiteSpace=wrap;html=1;align=center;" parent="1" vertex="1">
          <mxGeometry x="1650" y="570" width="100" height="40" as="geometry" />
        </mxCell>
        <mxCell id="Q04cyboe-cRlrqikKD0N-61" value="relativa a" style="shape=rhombus;perimeter=rhombusPerimeter;whiteSpace=wrap;html=1;align=center;" parent="1" vertex="1">
          <mxGeometry x="1640" y="460" width="120" height="60" as="geometry" />
        </mxCell>
        <mxCell id="Q04cyboe-cRlrqikKD0N-62" value="appartiene a" style="shape=rhombus;perimeter=rhombusPerimeter;whiteSpace=wrap;html=1;align=center;" parent="1" vertex="1">
          <mxGeometry x="870" y="470" width="120" height="60" as="geometry" />
        </mxCell>
        <mxCell id="Q04cyboe-cRlrqikKD0N-63" value="prodotto da" style="shape=rhombus;perimeter=rhombusPerimeter;whiteSpace=wrap;html=1;align=center;" parent="1" vertex="1">
          <mxGeometry x="730" y="380" width="120" height="60" as="geometry" />
        </mxCell>
        <mxCell id="Q04cyboe-cRlrqikKD0N-64" value="istanza di" style="shape=rhombus;perimeter=rhombusPerimeter;whiteSpace=wrap;html=1;align=center;" parent="1" vertex="1">
          <mxGeometry x="930" y="280" width="120" height="60" as="geometry" />
        </mxCell>
        <mxCell id="Q04cyboe-cRlrqikKD0N-65" value="" style="endArrow=none;html=1;rounded=0;dashed=1;dashPattern=1 2;entryX=0.5;entryY=1;entryDx=0;entryDy=0;" parent="1" source="Q04cyboe-cRlrqikKD0N-59" target="Q04cyboe-cRlrqikKD0N-64" edge="1">
          <mxGeometry relative="1" as="geometry">
            <mxPoint x="930" y="290" as="sourcePoint" />
            <mxPoint x="1090" y="290" as="targetPoint" />
          </mxGeometry>
        </mxCell>
        <mxCell id="Q04cyboe-cRlrqikKD0N-66" value="N" style="resizable=0;html=1;align=right;verticalAlign=bottom;" parent="Q04cyboe-cRlrqikKD0N-65" connectable="0" vertex="1">
          <mxGeometry x="1" relative="1" as="geometry" />
        </mxCell>
        <mxCell id="Q04cyboe-cRlrqikKD0N-67" value="" style="endArrow=none;html=1;rounded=0;entryX=0.5;entryY=0;entryDx=0;entryDy=0;exitX=0.5;exitY=1;exitDx=0;exitDy=0;" parent="1" source="Q04cyboe-cRlrqikKD0N-7" target="Q04cyboe-cRlrqikKD0N-64" edge="1">
          <mxGeometry relative="1" as="geometry">
            <mxPoint x="930" y="290" as="sourcePoint" />
            <mxPoint x="1090" y="290" as="targetPoint" />
          </mxGeometry>
        </mxCell>
        <mxCell id="Q04cyboe-cRlrqikKD0N-68" value="1" style="resizable=0;html=1;align=right;verticalAlign=bottom;" parent="Q04cyboe-cRlrqikKD0N-67" connectable="0" vertex="1">
          <mxGeometry x="1" relative="1" as="geometry" />
        </mxCell>
        <mxCell id="Q04cyboe-cRlrqikKD0N-69" value="" style="endArrow=none;html=1;rounded=0;entryX=0.5;entryY=1;entryDx=0;entryDy=0;exitX=0.5;exitY=0;exitDx=0;exitDy=0;" parent="1" source="Q04cyboe-cRlrqikKD0N-55" target="Q04cyboe-cRlrqikKD0N-63" edge="1">
          <mxGeometry relative="1" as="geometry">
            <mxPoint x="920" y="390" as="sourcePoint" />
            <mxPoint x="1080" y="390" as="targetPoint" />
          </mxGeometry>
        </mxCell>
        <mxCell id="Q04cyboe-cRlrqikKD0N-70" value="N" style="resizable=0;html=1;align=right;verticalAlign=bottom;" parent="Q04cyboe-cRlrqikKD0N-69" connectable="0" vertex="1">
          <mxGeometry x="1" relative="1" as="geometry" />
        </mxCell>
        <mxCell id="Q04cyboe-cRlrqikKD0N-71" value="" style="endArrow=none;html=1;rounded=0;dashed=1;dashPattern=1 2;entryX=0.5;entryY=0;entryDx=0;entryDy=0;exitX=0.5;exitY=1;exitDx=0;exitDy=0;" parent="1" source="Q04cyboe-cRlrqikKD0N-59" target="Q04cyboe-cRlrqikKD0N-62" edge="1">
          <mxGeometry relative="1" as="geometry">
            <mxPoint x="700" y="510" as="sourcePoint" />
            <mxPoint x="860" y="510" as="targetPoint" />
          </mxGeometry>
        </mxCell>
        <mxCell id="Q04cyboe-cRlrqikKD0N-72" value="N" style="resizable=0;html=1;align=right;verticalAlign=bottom;" parent="Q04cyboe-cRlrqikKD0N-71" connectable="0" vertex="1">
          <mxGeometry x="1" relative="1" as="geometry" />
        </mxCell>
        <mxCell id="Q04cyboe-cRlrqikKD0N-73" value="vi ha preso parte" style="shape=rhombus;perimeter=rhombusPerimeter;whiteSpace=wrap;html=1;align=center;strokeColor=#000000;" parent="1" vertex="1">
          <mxGeometry x="1140" y="380" width="120" height="60" as="geometry" />
        </mxCell>
        <mxCell id="Q04cyboe-cRlrqikKD0N-74" value="Genere" style="whiteSpace=wrap;html=1;align=center;" parent="1" vertex="1">
          <mxGeometry x="410" y="650" width="100" height="40" as="geometry" />
        </mxCell>
        <mxCell id="Q04cyboe-cRlrqikKD0N-75" value="appartiene a" style="shape=rhombus;perimeter=rhombusPerimeter;whiteSpace=wrap;html=1;align=center;" parent="1" vertex="1">
          <mxGeometry x="400" y="540" width="120" height="60" as="geometry" />
        </mxCell>
        <mxCell id="Q04cyboe-cRlrqikKD0N-76" value="" style="endArrow=none;html=1;rounded=0;dashed=1;dashPattern=1 2;entryX=0;entryY=0.5;entryDx=0;entryDy=0;exitX=1;exitY=0.5;exitDx=0;exitDy=0;" parent="1" source="Q04cyboe-cRlrqikKD0N-30" target="Q04cyboe-cRlrqikKD0N-75" edge="1">
          <mxGeometry relative="1" as="geometry">
            <mxPoint x="470" y="640" as="sourcePoint" />
            <mxPoint x="340" y="660" as="targetPoint" />
          </mxGeometry>
        </mxCell>
        <mxCell id="Q04cyboe-cRlrqikKD0N-77" value="N" style="resizable=0;html=1;align=right;verticalAlign=bottom;" parent="Q04cyboe-cRlrqikKD0N-76" connectable="0" vertex="1">
          <mxGeometry x="1" relative="1" as="geometry" />
        </mxCell>
        <mxCell id="Q04cyboe-cRlrqikKD0N-78" value="" style="endArrow=none;html=1;rounded=0;exitX=0;exitY=0.5;exitDx=0;exitDy=0;entryX=1;entryY=0.5;entryDx=0;entryDy=0;" parent="1" source="Q04cyboe-cRlrqikKD0N-56" target="Q04cyboe-cRlrqikKD0N-73" edge="1">
          <mxGeometry relative="1" as="geometry">
            <mxPoint x="1110" y="720" as="sourcePoint" />
            <mxPoint x="1270" y="720" as="targetPoint" />
          </mxGeometry>
        </mxCell>
        <mxCell id="Q04cyboe-cRlrqikKD0N-79" value="N" style="resizable=0;html=1;align=right;verticalAlign=bottom;" parent="Q04cyboe-cRlrqikKD0N-78" connectable="0" vertex="1">
          <mxGeometry x="1" relative="1" as="geometry" />
        </mxCell>
        <mxCell id="Q04cyboe-cRlrqikKD0N-80" value="in altre lingue" style="shape=rhombus;perimeter=rhombusPerimeter;whiteSpace=wrap;html=1;align=center;" parent="1" vertex="1">
          <mxGeometry x="1000" y="470" width="120" height="60" as="geometry" />
        </mxCell>
        <mxCell id="Q04cyboe-cRlrqikKD0N-81" value="" style="endArrow=none;html=1;rounded=0;dashed=1;dashPattern=1 2;exitX=0.5;exitY=1;exitDx=0;exitDy=0;entryX=0.5;entryY=0;entryDx=0;entryDy=0;" parent="1" source="Q04cyboe-cRlrqikKD0N-59" target="Q04cyboe-cRlrqikKD0N-80" edge="1">
          <mxGeometry relative="1" as="geometry">
            <mxPoint x="780" y="720" as="sourcePoint" />
            <mxPoint x="940" y="720" as="targetPoint" />
          </mxGeometry>
        </mxCell>
        <mxCell id="Q04cyboe-cRlrqikKD0N-82" value="N" style="resizable=0;html=1;align=right;verticalAlign=bottom;" parent="Q04cyboe-cRlrqikKD0N-81" connectable="0" vertex="1">
          <mxGeometry x="1" relative="1" as="geometry" />
        </mxCell>
        <mxCell id="Q04cyboe-cRlrqikKD0N-83" value="" style="endArrow=none;html=1;rounded=0;entryX=0.5;entryY=1;entryDx=0;entryDy=0;exitX=0.5;exitY=0;exitDx=0;exitDy=0;" parent="1" source="Q04cyboe-cRlrqikKD0N-54" target="Q04cyboe-cRlrqikKD0N-80" edge="1">
          <mxGeometry relative="1" as="geometry">
            <mxPoint x="700" y="690" as="sourcePoint" />
            <mxPoint x="860" y="690" as="targetPoint" />
          </mxGeometry>
        </mxCell>
        <mxCell id="Q04cyboe-cRlrqikKD0N-84" value="1" style="resizable=0;html=1;align=right;verticalAlign=bottom;" parent="Q04cyboe-cRlrqikKD0N-83" connectable="0" vertex="1">
          <mxGeometry x="1" relative="1" as="geometry" />
        </mxCell>
        <mxCell id="Q04cyboe-cRlrqikKD0N-85" value="" style="endArrow=none;html=1;rounded=0;exitX=0.5;exitY=1;exitDx=0;exitDy=0;entryX=0.5;entryY=0;entryDx=0;entryDy=0;" parent="1" source="Q04cyboe-cRlrqikKD0N-9" target="Q04cyboe-cRlrqikKD0N-53" edge="1">
          <mxGeometry relative="1" as="geometry">
            <mxPoint x="1410" y="310" as="sourcePoint" />
            <mxPoint x="1570" y="310" as="targetPoint" />
          </mxGeometry>
        </mxCell>
        <mxCell id="Q04cyboe-cRlrqikKD0N-86" value="1" style="resizable=0;html=1;align=right;verticalAlign=bottom;" parent="Q04cyboe-cRlrqikKD0N-85" connectable="0" vertex="1">
          <mxGeometry x="1" relative="1" as="geometry" />
        </mxCell>
        <mxCell id="Q04cyboe-cRlrqikKD0N-87" value="" style="endArrow=none;html=1;rounded=0;dashed=1;dashPattern=1 2;entryX=0.5;entryY=1;entryDx=0;entryDy=0;exitX=0.5;exitY=0;exitDx=0;exitDy=0;" parent="1" source="Q04cyboe-cRlrqikKD0N-48" target="Q04cyboe-cRlrqikKD0N-53" edge="1">
          <mxGeometry relative="1" as="geometry">
            <mxPoint x="1410" y="310" as="sourcePoint" />
            <mxPoint x="1570" y="310" as="targetPoint" />
          </mxGeometry>
        </mxCell>
        <mxCell id="Q04cyboe-cRlrqikKD0N-88" value="N" style="resizable=0;html=1;align=right;verticalAlign=bottom;" parent="Q04cyboe-cRlrqikKD0N-87" connectable="0" vertex="1">
          <mxGeometry x="1" relative="1" as="geometry" />
        </mxCell>
        <mxCell id="Q04cyboe-cRlrqikKD0N-89" value="" style="endArrow=none;html=1;rounded=0;entryX=0.5;entryY=0;entryDx=0;entryDy=0;exitX=0.5;exitY=1;exitDx=0;exitDy=0;" parent="1" source="Q04cyboe-cRlrqikKD0N-48" target="Q04cyboe-cRlrqikKD0N-61" edge="1">
          <mxGeometry relative="1" as="geometry">
            <mxPoint x="1190" y="710" as="sourcePoint" />
            <mxPoint x="1350" y="710" as="targetPoint" />
          </mxGeometry>
        </mxCell>
        <mxCell id="Q04cyboe-cRlrqikKD0N-90" value="1" style="resizable=0;html=1;align=right;verticalAlign=bottom;" parent="Q04cyboe-cRlrqikKD0N-89" connectable="0" vertex="1">
          <mxGeometry x="1" relative="1" as="geometry" />
        </mxCell>
        <mxCell id="Q04cyboe-cRlrqikKD0N-91" value="" style="endArrow=none;html=1;rounded=0;entryX=0.5;entryY=1;entryDx=0;entryDy=0;exitX=0.5;exitY=0;exitDx=0;exitDy=0;" parent="1" source="Q04cyboe-cRlrqikKD0N-60" target="Q04cyboe-cRlrqikKD0N-61" edge="1">
          <mxGeometry relative="1" as="geometry">
            <mxPoint x="1500" y="540" as="sourcePoint" />
            <mxPoint x="1660" y="540" as="targetPoint" />
          </mxGeometry>
        </mxCell>
        <mxCell id="Q04cyboe-cRlrqikKD0N-92" value="N" style="resizable=0;html=1;align=right;verticalAlign=bottom;" parent="Q04cyboe-cRlrqikKD0N-91" connectable="0" vertex="1">
          <mxGeometry x="1" relative="1" as="geometry" />
        </mxCell>
        <mxCell id="Q04cyboe-cRlrqikKD0N-93" value="portato da" style="shape=rhombus;perimeter=rhombusPerimeter;whiteSpace=wrap;html=1;align=center;strokeColor=#000000;" parent="1" vertex="1">
          <mxGeometry x="1830" y="370" width="120" height="60" as="geometry" />
        </mxCell>
        <mxCell id="Q04cyboe-cRlrqikKD0N-94" value="Studio" style="whiteSpace=wrap;html=1;align=center;strokeColor=#000000;" parent="1" vertex="1">
          <mxGeometry x="2030" y="575" width="100" height="40" as="geometry" />
        </mxCell>
        <mxCell id="Q04cyboe-cRlrqikKD0N-95" value="" style="endArrow=none;html=1;rounded=0;entryX=1;entryY=0.5;entryDx=0;entryDy=0;exitX=0;exitY=0.5;exitDx=0;exitDy=0;" parent="1" source="Q04cyboe-cRlrqikKD0N-94" target="Q04cyboe-cRlrqikKD0N-93" edge="1">
          <mxGeometry relative="1" as="geometry">
            <mxPoint x="1980" y="530" as="sourcePoint" />
            <mxPoint x="2140" y="530" as="targetPoint" />
          </mxGeometry>
        </mxCell>
        <mxCell id="Q04cyboe-cRlrqikKD0N-96" value="N" style="resizable=0;html=1;align=right;verticalAlign=bottom;" parent="Q04cyboe-cRlrqikKD0N-95" connectable="0" vertex="1">
          <mxGeometry x="1" relative="1" as="geometry" />
        </mxCell>
        <mxCell id="Q04cyboe-cRlrqikKD0N-97" value="" style="endArrow=none;html=1;rounded=0;entryX=1;entryY=0.5;entryDx=0;entryDy=0;exitX=0;exitY=0.5;exitDx=0;exitDy=0;" parent="1" source="Q04cyboe-cRlrqikKD0N-94" target="Q04cyboe-cRlrqikKD0N-52" edge="1">
          <mxGeometry relative="1" as="geometry">
            <mxPoint x="2021" y="500" as="sourcePoint" />
            <mxPoint x="1941" y="500" as="targetPoint" />
          </mxGeometry>
        </mxCell>
        <mxCell id="Q04cyboe-cRlrqikKD0N-98" value="N" style="resizable=0;html=1;align=right;verticalAlign=bottom;" parent="Q04cyboe-cRlrqikKD0N-97" connectable="0" vertex="1">
          <mxGeometry x="1" relative="1" as="geometry" />
        </mxCell>
        <mxCell id="Q04cyboe-cRlrqikKD0N-99" value="" style="endArrow=none;html=1;rounded=0;entryX=1;entryY=0.5;entryDx=0;entryDy=0;exitX=0;exitY=0.5;exitDx=0;exitDy=0;" parent="1" source="Q04cyboe-cRlrqikKD0N-94" target="Q04cyboe-cRlrqikKD0N-50" edge="1">
          <mxGeometry relative="1" as="geometry">
            <mxPoint x="2030" y="620" as="sourcePoint" />
            <mxPoint x="1950" y="620" as="targetPoint" />
          </mxGeometry>
        </mxCell>
        <mxCell id="Q04cyboe-cRlrqikKD0N-100" value="N" style="resizable=0;html=1;align=right;verticalAlign=bottom;" parent="Q04cyboe-cRlrqikKD0N-99" connectable="0" vertex="1">
          <mxGeometry x="1" relative="1" as="geometry" />
        </mxCell>
        <mxCell id="Q04cyboe-cRlrqikKD0N-101" value="" style="endArrow=none;html=1;rounded=0;dashed=1;dashPattern=1 2;entryX=0.5;entryY=0;entryDx=0;entryDy=0;exitX=0.5;exitY=1;exitDx=0;exitDy=0;" parent="1" source="Q04cyboe-cRlrqikKD0N-60" target="Q04cyboe-cRlrqikKD0N-51" edge="1">
          <mxGeometry relative="1" as="geometry">
            <mxPoint x="1580" y="710" as="sourcePoint" />
            <mxPoint x="1740" y="710" as="targetPoint" />
          </mxGeometry>
        </mxCell>
        <mxCell id="Q04cyboe-cRlrqikKD0N-102" value="N" style="resizable=0;html=1;align=right;verticalAlign=bottom;" parent="Q04cyboe-cRlrqikKD0N-101" connectable="0" vertex="1">
          <mxGeometry x="1" relative="1" as="geometry" />
        </mxCell>
        <mxCell id="Q04cyboe-cRlrqikKD0N-103" value="" style="endArrow=none;html=1;rounded=0;dashed=1;dashPattern=1 2;entryX=0.5;entryY=1;entryDx=0;entryDy=0;exitX=0.5;exitY=0;exitDx=0;exitDy=0;" parent="1" source="Q04cyboe-cRlrqikKD0N-58" target="Q04cyboe-cRlrqikKD0N-62" edge="1">
          <mxGeometry relative="1" as="geometry">
            <mxPoint x="770" y="540" as="sourcePoint" />
            <mxPoint x="930" y="540" as="targetPoint" />
          </mxGeometry>
        </mxCell>
        <mxCell id="Q04cyboe-cRlrqikKD0N-104" value="N" style="resizable=0;html=1;align=right;verticalAlign=bottom;" parent="Q04cyboe-cRlrqikKD0N-103" connectable="0" vertex="1">
          <mxGeometry x="1" relative="1" as="geometry" />
        </mxCell>
        <mxCell id="Q04cyboe-cRlrqikKD0N-105" value="" style="endArrow=none;html=1;rounded=0;dashed=1;dashPattern=1 2;exitX=0.5;exitY=0;exitDx=0;exitDy=0;entryX=0.5;entryY=1;entryDx=0;entryDy=0;" parent="1" source="Q04cyboe-cRlrqikKD0N-74" target="Q04cyboe-cRlrqikKD0N-75" edge="1">
          <mxGeometry relative="1" as="geometry">
            <mxPoint x="530" y="630" as="sourcePoint" />
            <mxPoint x="690" y="630" as="targetPoint" />
          </mxGeometry>
        </mxCell>
        <mxCell id="Q04cyboe-cRlrqikKD0N-106" value="N" style="resizable=0;html=1;align=right;verticalAlign=bottom;" parent="Q04cyboe-cRlrqikKD0N-105" connectable="0" vertex="1">
          <mxGeometry x="1" relative="1" as="geometry" />
        </mxCell>
        <mxCell id="Q04cyboe-cRlrqikKD0N-107" value="" style="endArrow=none;html=1;rounded=0;dashed=1;dashPattern=1 2;entryX=0.5;entryY=1;entryDx=0;entryDy=0;exitX=0.5;exitY=0;exitDx=0;exitDy=0;" parent="1" source="Q04cyboe-cRlrqikKD0N-49" target="Q04cyboe-cRlrqikKD0N-51" edge="1">
          <mxGeometry relative="1" as="geometry">
            <mxPoint x="1460" y="530" as="sourcePoint" />
            <mxPoint x="1620" y="530" as="targetPoint" />
          </mxGeometry>
        </mxCell>
        <mxCell id="Q04cyboe-cRlrqikKD0N-108" value="N" style="resizable=0;html=1;align=right;verticalAlign=bottom;" parent="Q04cyboe-cRlrqikKD0N-107" connectable="0" vertex="1">
          <mxGeometry x="1" relative="1" as="geometry" />
        </mxCell>
        <mxCell id="Q04cyboe-cRlrqikKD0N-109" value="" style="endArrow=none;html=1;rounded=0;entryX=0.5;entryY=1;entryDx=0;entryDy=0;" parent="1" source="Q04cyboe-cRlrqikKD0N-57" target="Q04cyboe-cRlrqikKD0N-73" edge="1">
          <mxGeometry relative="1" as="geometry">
            <mxPoint x="1120" y="300" as="sourcePoint" />
            <mxPoint x="1280" y="300" as="targetPoint" />
          </mxGeometry>
        </mxCell>
        <mxCell id="Q04cyboe-cRlrqikKD0N-110" value="N" style="resizable=0;html=1;align=right;verticalAlign=bottom;" parent="Q04cyboe-cRlrqikKD0N-109" connectable="0" vertex="1">
          <mxGeometry x="1" relative="1" as="geometry" />
        </mxCell>
        <mxCell id="Q04cyboe-cRlrqikKD0N-111" value="" style="endArrow=none;html=1;rounded=0;dashed=1;dashPattern=1 2;entryX=0.5;entryY=0;entryDx=0;entryDy=0;exitX=0.5;exitY=1;exitDx=0;exitDy=0;" parent="1" source="Q04cyboe-cRlrqikKD0N-24" target="Q04cyboe-cRlrqikKD0N-44" edge="1">
          <mxGeometry relative="1" as="geometry">
            <mxPoint x="220" y="420" as="sourcePoint" />
            <mxPoint x="380" y="420" as="targetPoint" />
          </mxGeometry>
        </mxCell>
        <mxCell id="Q04cyboe-cRlrqikKD0N-112" value="N" style="resizable=0;html=1;align=right;verticalAlign=bottom;" parent="Q04cyboe-cRlrqikKD0N-111" connectable="0" vertex="1">
          <mxGeometry x="1" relative="1" as="geometry" />
        </mxCell>
        <mxCell id="Q04cyboe-cRlrqikKD0N-113" value="" style="endArrow=none;html=1;rounded=0;dashed=1;dashPattern=1 2;exitX=0.5;exitY=1;exitDx=0;exitDy=0;entryX=0.5;entryY=0;entryDx=0;entryDy=0;" parent="1" source="Q04cyboe-cRlrqikKD0N-30" target="Q04cyboe-cRlrqikKD0N-37" edge="1">
          <mxGeometry relative="1" as="geometry">
            <mxPoint x="380" y="670" as="sourcePoint" />
            <mxPoint x="540" y="670" as="targetPoint" />
          </mxGeometry>
        </mxCell>
        <mxCell id="Q04cyboe-cRlrqikKD0N-114" value="N" style="resizable=0;html=1;align=right;verticalAlign=bottom;" parent="Q04cyboe-cRlrqikKD0N-113" connectable="0" vertex="1">
          <mxGeometry x="1" relative="1" as="geometry" />
        </mxCell>
        <mxCell id="Q04cyboe-cRlrqikKD0N-115" value="" style="endArrow=none;html=1;rounded=0;dashed=1;dashPattern=1 2;entryX=1;entryY=0.5;entryDx=0;entryDy=0;exitX=0;exitY=0.5;exitDx=0;exitDy=0;" parent="1" source="Q04cyboe-cRlrqikKD0N-59" target="Q04cyboe-cRlrqikKD0N-63" edge="1">
          <mxGeometry relative="1" as="geometry">
            <mxPoint x="860" y="340" as="sourcePoint" />
            <mxPoint x="1020" y="340" as="targetPoint" />
          </mxGeometry>
        </mxCell>
        <mxCell id="Q04cyboe-cRlrqikKD0N-116" value="N" style="resizable=0;html=1;align=right;verticalAlign=bottom;" parent="Q04cyboe-cRlrqikKD0N-115" connectable="0" vertex="1">
          <mxGeometry x="1" relative="1" as="geometry" />
        </mxCell>
        <mxCell id="Q04cyboe-cRlrqikKD0N-117" value="" style="endArrow=none;html=1;rounded=0;dashed=1;dashPattern=1 2;entryX=0;entryY=0.5;entryDx=0;entryDy=0;exitX=1;exitY=0.5;exitDx=0;exitDy=0;" parent="1" source="Q04cyboe-cRlrqikKD0N-59" target="Q04cyboe-cRlrqikKD0N-73" edge="1">
          <mxGeometry relative="1" as="geometry">
            <mxPoint x="960" y="380" as="sourcePoint" />
            <mxPoint x="1120" y="380" as="targetPoint" />
          </mxGeometry>
        </mxCell>
        <mxCell id="Q04cyboe-cRlrqikKD0N-118" value="N" style="resizable=0;html=1;align=right;verticalAlign=bottom;" parent="Q04cyboe-cRlrqikKD0N-117" connectable="0" vertex="1">
          <mxGeometry x="1" relative="1" as="geometry" />
        </mxCell>
        <mxCell id="Q04cyboe-cRlrqikKD0N-119" value="" style="endArrow=none;html=1;rounded=0;dashed=1;dashPattern=1 2;entryX=0;entryY=0.5;entryDx=0;entryDy=0;exitX=1;exitY=0.5;exitDx=0;exitDy=0;" parent="1" source="Q04cyboe-cRlrqikKD0N-60" target="Q04cyboe-cRlrqikKD0N-50" edge="1">
          <mxGeometry relative="1" as="geometry">
            <mxPoint x="1630" y="700" as="sourcePoint" />
            <mxPoint x="1790" y="700" as="targetPoint" />
          </mxGeometry>
        </mxCell>
        <mxCell id="Q04cyboe-cRlrqikKD0N-120" value="N" style="resizable=0;html=1;align=right;verticalAlign=bottom;" parent="Q04cyboe-cRlrqikKD0N-119" connectable="0" vertex="1">
          <mxGeometry x="1" relative="1" as="geometry" />
        </mxCell>
        <mxCell id="Q04cyboe-cRlrqikKD0N-121" value="" style="endArrow=none;html=1;rounded=0;dashed=1;dashPattern=1 2;exitX=1;exitY=0.5;exitDx=0;exitDy=0;entryX=0;entryY=0.5;entryDx=0;entryDy=0;" parent="1" source="Q04cyboe-cRlrqikKD0N-60" target="Q04cyboe-cRlrqikKD0N-52" edge="1">
          <mxGeometry relative="1" as="geometry">
            <mxPoint x="1630" y="700" as="sourcePoint" />
            <mxPoint x="1790" y="700" as="targetPoint" />
          </mxGeometry>
        </mxCell>
        <mxCell id="Q04cyboe-cRlrqikKD0N-122" value="N" style="resizable=0;html=1;align=right;verticalAlign=bottom;" parent="Q04cyboe-cRlrqikKD0N-121" connectable="0" vertex="1">
          <mxGeometry x="1" relative="1" as="geometry" />
        </mxCell>
        <mxCell id="Q04cyboe-cRlrqikKD0N-123" value="" style="endArrow=none;html=1;rounded=0;dashed=1;dashPattern=1 2;entryX=0;entryY=0.5;entryDx=0;entryDy=0;exitX=1;exitY=0.5;exitDx=0;exitDy=0;" parent="1" source="Q04cyboe-cRlrqikKD0N-48" target="Q04cyboe-cRlrqikKD0N-93" edge="1">
          <mxGeometry relative="1" as="geometry">
            <mxPoint x="1650" y="540" as="sourcePoint" />
            <mxPoint x="1810" y="540" as="targetPoint" />
          </mxGeometry>
        </mxCell>
        <mxCell id="Q04cyboe-cRlrqikKD0N-124" value="N" style="resizable=0;html=1;align=right;verticalAlign=bottom;" parent="Q04cyboe-cRlrqikKD0N-123" connectable="0" vertex="1">
          <mxGeometry x="1" relative="1" as="geometry" />
        </mxCell>
        <mxCell id="Q04cyboe-cRlrqikKD0N-125" value="" style="endArrow=none;html=1;rounded=0;dashed=1;dashPattern=1 2;entryX=0;entryY=0.5;entryDx=0;entryDy=0;exitX=1;exitY=0.5;exitDx=0;exitDy=0;" parent="1" source="Q04cyboe-cRlrqikKD0N-20" target="Q04cyboe-cRlrqikKD0N-40" edge="1">
          <mxGeometry relative="1" as="geometry">
            <mxPoint x="560" y="510" as="sourcePoint" />
            <mxPoint x="720" y="510" as="targetPoint" />
          </mxGeometry>
        </mxCell>
        <mxCell id="Q04cyboe-cRlrqikKD0N-126" value="1" style="resizable=0;html=1;align=right;verticalAlign=bottom;" parent="Q04cyboe-cRlrqikKD0N-125" connectable="0" vertex="1">
          <mxGeometry x="1" relative="1" as="geometry" />
        </mxCell>
        <mxCell id="0E86L8fTfatDf1jnicsx-23" value="" style="endArrow=oval;html=1;rounded=0;strokeColor=#FF7F00;endFill=1;exitX=0.25;exitY=0;exitDx=0;exitDy=0;" parent="1" source="Q04cyboe-cRlrqikKD0N-1" edge="1">
          <mxGeometry relative="1" as="geometry">
            <mxPoint x="600" y="30" as="sourcePoint" />
            <mxPoint x="520" y="30" as="targetPoint" />
            <Array as="points">
              <mxPoint x="605" y="30" />
            </Array>
          </mxGeometry>
        </mxCell>
        <mxCell id="0E86L8fTfatDf1jnicsx-24" value="Username" style="resizable=0;align=right;verticalAlign=middle;fontColor=#FF7F00;html=1;spacingRight=6;spacingBottom=4;" parent="0E86L8fTfatDf1jnicsx-23" connectable="0" vertex="1">
          <mxGeometry x="1" relative="1" as="geometry">
            <mxPoint y="0.2400000000000002" as="offset" />
          </mxGeometry>
        </mxCell>
        <mxCell id="0E86L8fTfatDf1jnicsx-27" value="" style="endArrow=oval;html=1;rounded=0;strokeColor=#FF7F00;exitX=0.5;exitY=0;exitDx=0;exitDy=0;endFill=1;" parent="1" source="Q04cyboe-cRlrqikKD0N-3" edge="1">
          <mxGeometry relative="1" as="geometry">
            <mxPoint x="1000" y="-29.75999999999999" as="sourcePoint" />
            <mxPoint x="990" y="20" as="targetPoint" />
          </mxGeometry>
        </mxCell>
        <mxCell id="0E86L8fTfatDf1jnicsx-28" value="Id interno" style="resizable=0;align=right;verticalAlign=middle;fontColor=#FF7F00;html=1;spacingRight=6;spacingBottom=4;" parent="0E86L8fTfatDf1jnicsx-27" connectable="0" vertex="1">
          <mxGeometry x="1" relative="1" as="geometry">
            <mxPoint y="0.2400000000000002" as="offset" />
          </mxGeometry>
        </mxCell>
        <mxCell id="0E86L8fTfatDf1jnicsx-37" value="" style="endArrow=oval;html=1;rounded=0;strokeColor=#FF7F00;exitX=0.802;exitY=-0.007;exitDx=0;exitDy=0;endFill=1;exitPerimeter=0;" parent="1" source="Q04cyboe-cRlrqikKD0N-20" edge="1">
          <mxGeometry relative="1" as="geometry">
            <mxPoint x="560" y="299.81999999999994" as="sourcePoint" />
            <mxPoint x="400" y="320" as="targetPoint" />
            <Array as="points">
              <mxPoint x="320" y="360" />
            </Array>
          </mxGeometry>
        </mxCell>
        <mxCell id="0E86L8fTfatDf1jnicsx-38" value="ISBN" style="resizable=0;align=left;verticalAlign=middle;fontColor=#FF7F00;html=1;spacingRight=0;spacingBottom=4;spacingLeft=6;" parent="0E86L8fTfatDf1jnicsx-37" connectable="0" vertex="1">
          <mxGeometry x="1" relative="1" as="geometry">
            <mxPoint y="0.2400000000000002" as="offset" />
          </mxGeometry>
        </mxCell>
        <mxCell id="0E86L8fTfatDf1jnicsx-39" value="" style="endArrow=oval;html=1;rounded=0;strokeColor=#FF7F00;exitX=0;exitY=0.5;exitDx=0;exitDy=0;endFill=1;" parent="1" edge="1">
          <mxGeometry relative="1" as="geometry">
            <mxPoint x="240" y="550" as="sourcePoint" />
            <mxPoint x="220" y="550.33" as="targetPoint" />
          </mxGeometry>
        </mxCell>
        <mxCell id="0E86L8fTfatDf1jnicsx-40" value="Id interno" style="resizable=0;align=right;verticalAlign=middle;fontColor=#FF7F00;html=1;spacingRight=6;spacingBottom=4;" parent="0E86L8fTfatDf1jnicsx-39" connectable="0" vertex="1">
          <mxGeometry x="1" relative="1" as="geometry">
            <mxPoint y="0.2400000000000002" as="offset" />
          </mxGeometry>
        </mxCell>
        <mxCell id="0E86L8fTfatDf1jnicsx-41" value="" style="endArrow=oval;html=1;rounded=0;strokeColor=#FF7F00;exitX=1;exitY=0.5;exitDx=0;exitDy=0;endFill=1;" parent="1" edge="1">
          <mxGeometry relative="1" as="geometry">
            <mxPoint x="510" y="489.86" as="sourcePoint" />
            <mxPoint x="540" y="489.86" as="targetPoint" />
          </mxGeometry>
        </mxCell>
        <mxCell id="0E86L8fTfatDf1jnicsx-42" value="Parte di ISBN" style="resizable=0;align=left;verticalAlign=middle;fontColor=#FF7F00;html=1;spacingRight=0;spacingBottom=4;spacingLeft=6;" parent="0E86L8fTfatDf1jnicsx-41" connectable="0" vertex="1">
          <mxGeometry x="1" relative="1" as="geometry">
            <mxPoint y="2.220446049250313e-16" as="offset" />
          </mxGeometry>
        </mxCell>
        <mxCell id="0E86L8fTfatDf1jnicsx-49" value="" style="endArrow=oval;html=1;rounded=0;strokeColor=#FF7F00;exitX=0;exitY=0.5;exitDx=0;exitDy=0;endFill=1;" parent="1" edge="1">
          <mxGeometry relative="1" as="geometry">
            <mxPoint x="50" y="630.0000000000002" as="sourcePoint" />
            <mxPoint x="10" y="630.29" as="targetPoint" />
          </mxGeometry>
        </mxCell>
        <mxCell id="0E86L8fTfatDf1jnicsx-50" value="ID" style="resizable=0;align=right;verticalAlign=middle;fontColor=#FF7F00;html=1;spacingRight=6;spacingBottom=4;" parent="0E86L8fTfatDf1jnicsx-49" connectable="0" vertex="1">
          <mxGeometry x="1" relative="1" as="geometry">
            <mxPoint y="0.2400000000000002" as="offset" />
          </mxGeometry>
        </mxCell>
        <mxCell id="0E86L8fTfatDf1jnicsx-58" value="" style="endArrow=oval;html=1;rounded=0;strokeColor=#FF7F00;exitX=1;exitY=0.5;exitDx=0;exitDy=0;endFill=1;" parent="1" edge="1">
          <mxGeometry relative="1" as="geometry">
            <mxPoint x="1110" y="580" as="sourcePoint" />
            <mxPoint x="1150" y="580" as="targetPoint" />
          </mxGeometry>
        </mxCell>
        <mxCell id="0E86L8fTfatDf1jnicsx-59" value="Lingua" style="resizable=0;align=left;verticalAlign=middle;fontColor=#FF7F00;html=1;spacingRight=0;spacingBottom=4;spacingLeft=6;" parent="0E86L8fTfatDf1jnicsx-58" connectable="0" vertex="1">
          <mxGeometry x="1" relative="1" as="geometry">
            <mxPoint y="2.220446049250313e-16" as="offset" />
          </mxGeometry>
        </mxCell>
        <mxCell id="0E86L8fTfatDf1jnicsx-75" value="" style="endArrow=oval;html=1;rounded=0;strokeColor=#FF7F00;exitX=0.25;exitY=0;exitDx=0;exitDy=0;endFill=1;" parent="1" source="Q04cyboe-cRlrqikKD0N-48" edge="1">
          <mxGeometry relative="1" as="geometry">
            <mxPoint x="1670" y="350.0000000000002" as="sourcePoint" />
            <mxPoint x="1610" y="360" as="targetPoint" />
            <Array as="points">
              <mxPoint x="1675" y="360" />
            </Array>
          </mxGeometry>
        </mxCell>
        <mxCell id="0E86L8fTfatDf1jnicsx-76" value="ID" style="resizable=0;align=right;verticalAlign=middle;fontColor=#FF7F00;html=1;spacingRight=6;spacingBottom=4;" parent="0E86L8fTfatDf1jnicsx-75" connectable="0" vertex="1">
          <mxGeometry x="1" relative="1" as="geometry">
            <mxPoint y="0.2400000000000002" as="offset" />
          </mxGeometry>
        </mxCell>
        <mxCell id="0E86L8fTfatDf1jnicsx-85" value="" style="endArrow=oval;html=1;rounded=0;strokeColor=#FF7F00;exitX=0;exitY=0.5;exitDx=0;exitDy=0;endFill=1;" parent="1" edge="1">
          <mxGeometry relative="1" as="geometry">
            <mxPoint x="1649.9999999999995" y="769.6600000000002" as="sourcePoint" />
            <mxPoint x="1609.9999999999995" y="769.9499999999999" as="targetPoint" />
          </mxGeometry>
        </mxCell>
        <mxCell id="0E86L8fTfatDf1jnicsx-86" value="ID / Nome" style="resizable=0;align=right;verticalAlign=middle;fontColor=#FF7F00;html=1;spacingRight=6;spacingBottom=4;" parent="0E86L8fTfatDf1jnicsx-85" connectable="0" vertex="1">
          <mxGeometry x="1" relative="1" as="geometry">
            <mxPoint y="0.2400000000000002" as="offset" />
          </mxGeometry>
        </mxCell>
        <mxCell id="0E86L8fTfatDf1jnicsx-91" value="" style="endArrow=oval;html=1;rounded=0;strokeColor=#000000;exitX=0;exitY=0.25;exitDx=0;exitDy=0;endFill=0;dashed=1;dashPattern=1 2;" parent="1" source="Q04cyboe-cRlrqikKD0N-7" edge="1">
          <mxGeometry relative="1" as="geometry">
            <mxPoint x="1110" y="280" as="sourcePoint" />
            <mxPoint x="910" y="210" as="targetPoint" />
          </mxGeometry>
        </mxCell>
        <mxCell id="0E86L8fTfatDf1jnicsx-92" value="Stato" style="resizable=0;align=right;verticalAlign=middle;fontColor=#000000;html=1;spacingRight=6;spacingBottom=4;" parent="0E86L8fTfatDf1jnicsx-91" connectable="0" vertex="1">
          <mxGeometry x="1" relative="1" as="geometry">
            <mxPoint y="0.2400000000000002" as="offset" />
          </mxGeometry>
        </mxCell>
        <mxCell id="0E86L8fTfatDf1jnicsx-93" value="" style="endArrow=oval;html=1;rounded=0;strokeColor=#000000;exitX=0;exitY=0.5;exitDx=0;exitDy=0;endFill=0;dashed=1;dashPattern=1 2;" parent="1" edge="1">
          <mxGeometry relative="1" as="geometry">
            <mxPoint x="580" y="69.89999999999998" as="sourcePoint" />
            <mxPoint x="520" y="69.65999999999997" as="targetPoint" />
          </mxGeometry>
        </mxCell>
        <mxCell id="0E86L8fTfatDf1jnicsx-94" value="Email" style="resizable=0;align=right;verticalAlign=middle;fontColor=#000000;html=1;spacingRight=6;spacingBottom=4;" parent="0E86L8fTfatDf1jnicsx-93" connectable="0" vertex="1">
          <mxGeometry x="1" relative="1" as="geometry">
            <mxPoint y="0.2400000000000002" as="offset" />
          </mxGeometry>
        </mxCell>
        <mxCell id="0E86L8fTfatDf1jnicsx-95" value="" style="endArrow=oval;html=1;rounded=0;strokeColor=#000000;exitX=0.25;exitY=1;exitDx=0;exitDy=0;endFill=0;" parent="1" source="Q04cyboe-cRlrqikKD0N-1" edge="1">
          <mxGeometry relative="1" as="geometry">
            <mxPoint x="610" y="10.240000000000009" as="sourcePoint" />
            <mxPoint x="520" y="110" as="targetPoint" />
            <Array as="points">
              <mxPoint x="605" y="110" />
            </Array>
          </mxGeometry>
        </mxCell>
        <mxCell id="0E86L8fTfatDf1jnicsx-96" value="È bannato" style="resizable=0;align=right;verticalAlign=middle;fontColor=#000000;html=1;spacingRight=6;spacingBottom=4;" parent="0E86L8fTfatDf1jnicsx-95" connectable="0" vertex="1">
          <mxGeometry x="1" relative="1" as="geometry">
            <mxPoint y="0.2400000000000002" as="offset" />
          </mxGeometry>
        </mxCell>
        <mxCell id="0E86L8fTfatDf1jnicsx-97" value="" style="endArrow=oval;html=1;rounded=0;strokeColor=#000000;exitX=0;exitY=0.5;exitDx=0;exitDy=0;endFill=0;" parent="1" edge="1">
          <mxGeometry relative="1" as="geometry">
            <mxPoint x="580" y="89.54999999999998" as="sourcePoint" />
            <mxPoint x="520" y="89.30999999999997" as="targetPoint" />
          </mxGeometry>
        </mxCell>
        <mxCell id="0E86L8fTfatDf1jnicsx-98" value="È amministratore" style="resizable=0;align=right;verticalAlign=middle;fontColor=#000000;html=1;spacingRight=6;spacingBottom=4;" parent="0E86L8fTfatDf1jnicsx-97" connectable="0" vertex="1">
          <mxGeometry x="1" relative="1" as="geometry">
            <mxPoint y="0.2400000000000002" as="offset" />
          </mxGeometry>
        </mxCell>
        <mxCell id="0E86L8fTfatDf1jnicsx-107" value="" style="endArrow=oval;html=1;rounded=0;strokeColor=#000000;exitX=0;exitY=0.5;exitDx=0;exitDy=0;endFill=0;" parent="1" edge="1">
          <mxGeometry relative="1" as="geometry">
            <mxPoint x="580" y="50.240000000000094" as="sourcePoint" />
            <mxPoint x="520" y="49.99999999999986" as="targetPoint" />
          </mxGeometry>
        </mxCell>
        <mxCell id="0E86L8fTfatDf1jnicsx-108" value="Password" style="resizable=0;align=right;verticalAlign=middle;fontColor=#000000;html=1;spacingRight=6;spacingBottom=4;" parent="0E86L8fTfatDf1jnicsx-107" connectable="0" vertex="1">
          <mxGeometry x="1" relative="1" as="geometry">
            <mxPoint y="0.2400000000000002" as="offset" />
          </mxGeometry>
        </mxCell>
        <mxCell id="0E86L8fTfatDf1jnicsx-109" value="" style="endArrow=oval;html=1;rounded=0;strokeColor=#000000;exitX=0;exitY=0.25;exitDx=0;exitDy=0;endFill=0;dashed=1;dashPattern=1 2;" parent="1" edge="1">
          <mxGeometry relative="1" as="geometry">
            <mxPoint x="940" y="230" as="sourcePoint" />
            <mxPoint x="910" y="230" as="targetPoint" />
          </mxGeometry>
        </mxCell>
        <mxCell id="0E86L8fTfatDf1jnicsx-110" value="Provenienza" style="resizable=0;align=right;verticalAlign=middle;fontColor=#000000;html=1;spacingRight=6;spacingBottom=4;" parent="0E86L8fTfatDf1jnicsx-109" connectable="0" vertex="1">
          <mxGeometry x="1" relative="1" as="geometry">
            <mxPoint y="0.2400000000000002" as="offset" />
          </mxGeometry>
        </mxCell>
        <mxCell id="0E86L8fTfatDf1jnicsx-131" value="" style="endArrow=oval;html=1;rounded=0;strokeColor=#000000;exitX=0;exitY=0.25;exitDx=0;exitDy=0;endFill=0;dashed=1;dashPattern=1 2;" parent="1" edge="1">
          <mxGeometry relative="1" as="geometry">
            <mxPoint x="240" y="209.57999999999998" as="sourcePoint" />
            <mxPoint x="210" y="209.57999999999998" as="targetPoint" />
          </mxGeometry>
        </mxCell>
        <mxCell id="0E86L8fTfatDf1jnicsx-132" value="Stato" style="resizable=0;align=right;verticalAlign=middle;fontColor=#000000;html=1;spacingRight=6;spacingBottom=4;" parent="0E86L8fTfatDf1jnicsx-131" connectable="0" vertex="1">
          <mxGeometry x="1" relative="1" as="geometry">
            <mxPoint y="0.2400000000000002" as="offset" />
          </mxGeometry>
        </mxCell>
        <mxCell id="0E86L8fTfatDf1jnicsx-133" value="" style="endArrow=oval;html=1;rounded=0;strokeColor=#000000;exitX=0;exitY=0.25;exitDx=0;exitDy=0;endFill=0;dashed=1;dashPattern=1 2;" parent="1" edge="1">
          <mxGeometry relative="1" as="geometry">
            <mxPoint x="240" y="229.57999999999998" as="sourcePoint" />
            <mxPoint x="210" y="229.57999999999998" as="targetPoint" />
          </mxGeometry>
        </mxCell>
        <mxCell id="0E86L8fTfatDf1jnicsx-134" value="Provenienza" style="resizable=0;align=right;verticalAlign=middle;fontColor=#000000;html=1;spacingRight=6;spacingBottom=4;" parent="0E86L8fTfatDf1jnicsx-133" connectable="0" vertex="1">
          <mxGeometry x="1" relative="1" as="geometry">
            <mxPoint y="0.2400000000000002" as="offset" />
          </mxGeometry>
        </mxCell>
        <mxCell id="0E86L8fTfatDf1jnicsx-135" value="" style="endArrow=oval;html=1;rounded=0;strokeColor=#000000;exitX=0;exitY=0.25;exitDx=0;exitDy=0;endFill=0;dashed=1;dashPattern=1 2;" parent="1" edge="1">
          <mxGeometry relative="1" as="geometry">
            <mxPoint x="1650" y="199.57999999999998" as="sourcePoint" />
            <mxPoint x="1620" y="199.57999999999998" as="targetPoint" />
          </mxGeometry>
        </mxCell>
        <mxCell id="0E86L8fTfatDf1jnicsx-136" value="Stato" style="resizable=0;align=right;verticalAlign=middle;fontColor=#000000;html=1;spacingRight=6;spacingBottom=4;" parent="0E86L8fTfatDf1jnicsx-135" connectable="0" vertex="1">
          <mxGeometry x="1" relative="1" as="geometry">
            <mxPoint y="0.2400000000000002" as="offset" />
          </mxGeometry>
        </mxCell>
        <mxCell id="0E86L8fTfatDf1jnicsx-137" value="" style="endArrow=oval;html=1;rounded=0;strokeColor=#000000;exitX=0;exitY=0.25;exitDx=0;exitDy=0;endFill=0;dashed=1;dashPattern=1 2;" parent="1" edge="1">
          <mxGeometry relative="1" as="geometry">
            <mxPoint x="1650" y="219.57999999999998" as="sourcePoint" />
            <mxPoint x="1620" y="219.57999999999998" as="targetPoint" />
          </mxGeometry>
        </mxCell>
        <mxCell id="0E86L8fTfatDf1jnicsx-138" value="Provenienza" style="resizable=0;align=right;verticalAlign=middle;fontColor=#000000;html=1;spacingRight=6;spacingBottom=4;" parent="0E86L8fTfatDf1jnicsx-137" connectable="0" vertex="1">
          <mxGeometry x="1" relative="1" as="geometry">
            <mxPoint y="0.2400000000000002" as="offset" />
          </mxGeometry>
        </mxCell>
        <mxCell id="0E86L8fTfatDf1jnicsx-139" value="" style="endArrow=oval;html=1;rounded=0;strokeColor=#000000;exitX=1;exitY=0;exitDx=0;exitDy=0;endFill=0;" parent="1" source="Q04cyboe-cRlrqikKD0N-20" edge="1">
          <mxGeometry relative="1" as="geometry">
            <mxPoint y="370.23999999999995" as="sourcePoint" />
            <mxPoint x="400" y="340" as="targetPoint" />
            <Array as="points">
              <mxPoint x="340" y="370" />
            </Array>
          </mxGeometry>
        </mxCell>
        <mxCell id="0E86L8fTfatDf1jnicsx-140" value="Titolo" style="resizable=0;align=left;verticalAlign=middle;fontColor=#000000;html=1;spacingRight=0;spacingBottom=4;spacingLeft=6;" parent="0E86L8fTfatDf1jnicsx-139" connectable="0" vertex="1">
          <mxGeometry x="1" relative="1" as="geometry">
            <mxPoint y="0.2400000000000002" as="offset" />
          </mxGeometry>
        </mxCell>
        <mxCell id="0E86L8fTfatDf1jnicsx-146" value="" style="endArrow=oval;html=1;rounded=0;strokeColor=#000000;exitX=0;exitY=0.5;exitDx=0;exitDy=0;endFill=0;dashed=1;dashPattern=1 2;" parent="1" edge="1">
          <mxGeometry relative="1" as="geometry">
            <mxPoint x="50" y="360.23999999999995" as="sourcePoint" />
            <mxPoint x="10" y="360" as="targetPoint" />
          </mxGeometry>
        </mxCell>
        <mxCell id="0E86L8fTfatDf1jnicsx-147" value="Pagine" style="resizable=0;align=right;verticalAlign=middle;fontColor=#000000;html=1;spacingRight=6;spacingBottom=4;" parent="0E86L8fTfatDf1jnicsx-146" connectable="0" vertex="1">
          <mxGeometry x="1" relative="1" as="geometry">
            <mxPoint y="0.2400000000000002" as="offset" />
          </mxGeometry>
        </mxCell>
        <mxCell id="0E86L8fTfatDf1jnicsx-148" value="" style="endArrow=oval;html=1;rounded=0;strokeColor=#000000;exitX=0;exitY=0.5;exitDx=0;exitDy=0;endFill=0;dashed=1;dashPattern=1 2;" parent="1" edge="1">
          <mxGeometry relative="1" as="geometry">
            <mxPoint x="50" y="379.55" as="sourcePoint" />
            <mxPoint x="10" y="379" as="targetPoint" />
          </mxGeometry>
        </mxCell>
        <mxCell id="0E86L8fTfatDf1jnicsx-149" value="Copertina" style="resizable=0;align=right;verticalAlign=middle;fontColor=#000000;html=1;spacingRight=6;spacingBottom=4;" parent="0E86L8fTfatDf1jnicsx-148" connectable="0" vertex="1">
          <mxGeometry x="1" relative="1" as="geometry">
            <mxPoint y="0.2400000000000002" as="offset" />
          </mxGeometry>
        </mxCell>
        <mxCell id="0E86L8fTfatDf1jnicsx-151" value="" style="endArrow=oval;html=1;rounded=0;strokeColor=#000000;exitX=0;exitY=0.5;exitDx=0;exitDy=0;endFill=0;dashed=1;dashPattern=1 2;" parent="1" edge="1">
          <mxGeometry relative="1" as="geometry">
            <mxPoint x="50" y="439.54999999999995" as="sourcePoint" />
            <mxPoint x="10" y="439" as="targetPoint" />
          </mxGeometry>
        </mxCell>
        <mxCell id="0E86L8fTfatDf1jnicsx-152" value="Durata" style="resizable=0;align=right;verticalAlign=middle;fontColor=#000000;html=1;spacingRight=6;spacingBottom=4;" parent="0E86L8fTfatDf1jnicsx-151" connectable="0" vertex="1">
          <mxGeometry x="1" relative="1" as="geometry">
            <mxPoint y="0.2400000000000002" as="offset" />
          </mxGeometry>
        </mxCell>
        <mxCell id="0E86L8fTfatDf1jnicsx-153" value="" style="endArrow=oval;html=1;rounded=0;strokeColor=#000000;exitX=0;exitY=0.5;exitDx=0;exitDy=0;endFill=0;dashed=1;dashPattern=1 2;" parent="1" edge="1">
          <mxGeometry relative="1" as="geometry">
            <mxPoint x="50" y="459.54999999999995" as="sourcePoint" />
            <mxPoint x="10" y="459" as="targetPoint" />
          </mxGeometry>
        </mxCell>
        <mxCell id="0E86L8fTfatDf1jnicsx-154" value="Immagine" style="resizable=0;align=right;verticalAlign=middle;fontColor=#000000;html=1;spacingRight=6;spacingBottom=4;" parent="0E86L8fTfatDf1jnicsx-153" connectable="0" vertex="1">
          <mxGeometry x="1" relative="1" as="geometry">
            <mxPoint y="0.2400000000000002" as="offset" />
          </mxGeometry>
        </mxCell>
        <mxCell id="0E86L8fTfatDf1jnicsx-155" value="ID / Nome" style="resizable=0;align=left;verticalAlign=middle;fontColor=#FF7F00;html=1;spacingRight=0;spacingBottom=4;spacingLeft=6;" parent="1" connectable="0" vertex="1">
          <mxGeometry x="1" relative="1" as="geometry">
            <mxPoint x="-760" y="180.34" as="offset" />
          </mxGeometry>
        </mxCell>
        <mxCell id="0E86L8fTfatDf1jnicsx-160" value="" style="endArrow=oval;html=1;rounded=0;strokeColor=#000000;exitX=1;exitY=0.75;exitDx=0;exitDy=0;endFill=0;" parent="1" source="Q04cyboe-cRlrqikKD0N-41" edge="1">
          <mxGeometry relative="1" as="geometry">
            <mxPoint x="610" y="570" as="sourcePoint" />
            <mxPoint x="540" y="510" as="targetPoint" />
          </mxGeometry>
        </mxCell>
        <mxCell id="0E86L8fTfatDf1jnicsx-161" value="Nome" style="resizable=0;align=left;verticalAlign=middle;fontColor=#000000;html=1;spacingRight=0;spacingBottom=4;spacingLeft=6;" parent="0E86L8fTfatDf1jnicsx-160" connectable="0" vertex="1">
          <mxGeometry x="1" relative="1" as="geometry">
            <mxPoint y="0.2400000000000002" as="offset" />
          </mxGeometry>
        </mxCell>
        <mxCell id="0E86L8fTfatDf1jnicsx-164" value="" style="endArrow=oval;html=1;rounded=0;strokeColor=#000000;exitX=0;exitY=0.5;exitDx=0;exitDy=0;endFill=0;dashed=1;dashPattern=1 2;" parent="1" edge="1">
          <mxGeometry relative="1" as="geometry">
            <mxPoint x="240" y="569.9799999999999" as="sourcePoint" />
            <mxPoint x="220" y="569.43" as="targetPoint" />
          </mxGeometry>
        </mxCell>
        <mxCell id="0E86L8fTfatDf1jnicsx-165" value="Sinossi" style="resizable=0;align=right;verticalAlign=middle;fontColor=#000000;html=1;spacingRight=6;spacingBottom=4;" parent="0E86L8fTfatDf1jnicsx-164" connectable="0" vertex="1">
          <mxGeometry x="1" relative="1" as="geometry">
            <mxPoint y="0.2400000000000002" as="offset" />
          </mxGeometry>
        </mxCell>
        <mxCell id="2nq9K5lRdLXZoBIddekR-2" value="" style="endArrow=oval;html=1;rounded=0;strokeColor=#000000;exitX=1;exitY=0.75;exitDx=0;exitDy=0;endFill=0;" parent="1" source="Q04cyboe-cRlrqikKD0N-54" edge="1">
          <mxGeometry relative="1" as="geometry">
            <mxPoint x="1120" y="600" as="sourcePoint" />
            <mxPoint x="1150" y="600" as="targetPoint" />
          </mxGeometry>
        </mxCell>
        <mxCell id="2nq9K5lRdLXZoBIddekR-3" value="Titolo localizzato" style="resizable=0;align=left;verticalAlign=middle;fontColor=#000000;html=1;spacingRight=0;spacingBottom=4;spacingLeft=6;" parent="2nq9K5lRdLXZoBIddekR-2" connectable="0" vertex="1">
          <mxGeometry x="1" relative="1" as="geometry">
            <mxPoint y="0.2400000000000002" as="offset" />
          </mxGeometry>
        </mxCell>
        <mxCell id="2nq9K5lRdLXZoBIddekR-14" value="" style="endArrow=oval;html=1;rounded=0;strokeColor=#FF7F00;exitX=0.802;exitY=-0.007;exitDx=0;exitDy=0;endFill=1;exitPerimeter=0;" parent="1" edge="1">
          <mxGeometry relative="1" as="geometry">
            <mxPoint x="1020.1999999999998" y="390.0000000000001" as="sourcePoint" />
            <mxPoint x="1100" y="320.2800000000001" as="targetPoint" />
            <Array as="points">
              <mxPoint x="1020" y="360.28" />
            </Array>
          </mxGeometry>
        </mxCell>
        <mxCell id="2nq9K5lRdLXZoBIddekR-15" value="EIDR" style="resizable=0;align=left;verticalAlign=middle;fontColor=#FF7F00;html=1;spacingRight=0;spacingBottom=4;spacingLeft=6;" parent="2nq9K5lRdLXZoBIddekR-14" connectable="0" vertex="1">
          <mxGeometry x="1" relative="1" as="geometry">
            <mxPoint y="0.2400000000000002" as="offset" />
          </mxGeometry>
        </mxCell>
        <mxCell id="2nq9K5lRdLXZoBIddekR-22" value="" style="endArrow=oval;html=1;rounded=0;strokeColor=#FF7F00;exitX=1;exitY=0.5;exitDx=0;exitDy=0;endFill=1;" parent="1" edge="1">
          <mxGeometry relative="1" as="geometry">
            <mxPoint x="1249.9999999999995" y="489.70999999999975" as="sourcePoint" />
            <mxPoint x="1280" y="490" as="targetPoint" />
          </mxGeometry>
        </mxCell>
        <mxCell id="2nq9K5lRdLXZoBIddekR-23" value="ID" style="resizable=0;align=left;verticalAlign=middle;fontColor=#FF7F00;html=1;spacingRight=0;spacingBottom=4;spacingLeft=6;" parent="2nq9K5lRdLXZoBIddekR-22" connectable="0" vertex="1">
          <mxGeometry x="1" relative="1" as="geometry">
            <mxPoint y="2.220446049250313e-16" as="offset" />
          </mxGeometry>
        </mxCell>
        <mxCell id="2nq9K5lRdLXZoBIddekR-24" value="" style="endArrow=oval;html=1;rounded=0;strokeColor=#000000;exitX=1;exitY=0;exitDx=0;exitDy=0;endFill=0;" parent="1" edge="1">
          <mxGeometry relative="1" as="geometry">
            <mxPoint x="1040" y="390.0000000000001" as="sourcePoint" />
            <mxPoint x="1100" y="340.0000000000001" as="targetPoint" />
            <Array as="points">
              <mxPoint x="1040" y="370" />
            </Array>
          </mxGeometry>
        </mxCell>
        <mxCell id="2nq9K5lRdLXZoBIddekR-25" value="Titolo" style="resizable=0;align=left;verticalAlign=middle;fontColor=#000000;html=1;spacingRight=0;spacingBottom=4;spacingLeft=6;" parent="2nq9K5lRdLXZoBIddekR-24" connectable="0" vertex="1">
          <mxGeometry x="1" relative="1" as="geometry">
            <mxPoint y="0.2400000000000002" as="offset" />
          </mxGeometry>
        </mxCell>
        <mxCell id="2nq9K5lRdLXZoBIddekR-29" value="" style="endArrow=oval;html=1;rounded=0;strokeColor=#000000;endFill=0;exitX=0.2;exitY=0;exitDx=0;exitDy=0;exitPerimeter=0;dashed=1;dashPattern=1 2;" parent="1" source="Q04cyboe-cRlrqikKD0N-59" edge="1">
          <mxGeometry relative="1" as="geometry">
            <mxPoint x="960" y="380" as="sourcePoint" />
            <mxPoint x="880" y="320" as="targetPoint" />
            <Array as="points">
              <mxPoint x="960" y="380" />
              <mxPoint x="960" y="360" />
            </Array>
          </mxGeometry>
        </mxCell>
        <mxCell id="2nq9K5lRdLXZoBIddekR-30" value="Sinossi" style="resizable=0;align=right;verticalAlign=middle;fontColor=#000000;html=1;spacingRight=6;spacingBottom=4;spacingLeft=0;" parent="2nq9K5lRdLXZoBIddekR-29" connectable="0" vertex="1">
          <mxGeometry x="1" relative="1" as="geometry">
            <mxPoint y="0.2400000000000002" as="offset" />
          </mxGeometry>
        </mxCell>
        <mxCell id="2nq9K5lRdLXZoBIddekR-34" value="" style="endArrow=oval;html=1;rounded=0;strokeColor=#000000;exitX=0;exitY=0;exitDx=0;exitDy=0;endFill=0;dashed=1;dashPattern=1 2;" parent="1" source="Q04cyboe-cRlrqikKD0N-59" edge="1">
          <mxGeometry relative="1" as="geometry">
            <mxPoint x="709.9999999999995" y="335.0000000000001" as="sourcePoint" />
            <mxPoint x="880" y="340" as="targetPoint" />
            <Array as="points">
              <mxPoint x="940" y="370" />
            </Array>
          </mxGeometry>
        </mxCell>
        <mxCell id="2nq9K5lRdLXZoBIddekR-35" value="Durata" style="resizable=0;align=right;verticalAlign=middle;fontColor=#000000;html=1;spacingRight=6;spacingBottom=4;spacingLeft=0;" parent="2nq9K5lRdLXZoBIddekR-34" connectable="0" vertex="1">
          <mxGeometry x="1" relative="1" as="geometry">
            <mxPoint y="0.2400000000000002" as="offset" />
          </mxGeometry>
        </mxCell>
        <mxCell id="2nq9K5lRdLXZoBIddekR-36" value="" style="endArrow=oval;html=1;rounded=0;strokeColor=#000000;endFill=0;dashed=1;dashPattern=1 2;" parent="1" edge="1">
          <mxGeometry relative="1" as="geometry">
            <mxPoint x="940" y="400" as="sourcePoint" />
            <mxPoint x="880" y="360" as="targetPoint" />
            <Array as="points">
              <mxPoint x="910" y="385" />
              <mxPoint x="910" y="375" />
            </Array>
          </mxGeometry>
        </mxCell>
        <mxCell id="2nq9K5lRdLXZoBIddekR-37" value="Locandina" style="resizable=0;align=right;verticalAlign=middle;fontColor=#000000;html=1;spacingRight=6;spacingBottom=4;spacingLeft=0;" parent="2nq9K5lRdLXZoBIddekR-36" connectable="0" vertex="1">
          <mxGeometry x="1" relative="1" as="geometry">
            <mxPoint y="0.2400000000000002" as="offset" />
          </mxGeometry>
        </mxCell>
        <mxCell id="2nq9K5lRdLXZoBIddekR-38" value="" style="endArrow=oval;html=1;rounded=0;strokeColor=#000000;exitX=0;exitY=0.25;exitDx=0;exitDy=0;endFill=0;dashed=1;dashPattern=1 2;" parent="1" edge="1">
          <mxGeometry relative="1" as="geometry">
            <mxPoint x="1650" y="609.43" as="sourcePoint" />
            <mxPoint x="1610" y="609.93" as="targetPoint" />
          </mxGeometry>
        </mxCell>
        <mxCell id="2nq9K5lRdLXZoBIddekR-39" value="Descrizione" style="resizable=0;align=right;verticalAlign=middle;fontColor=#000000;html=1;spacingRight=6;spacingBottom=4;" parent="2nq9K5lRdLXZoBIddekR-38" connectable="0" vertex="1">
          <mxGeometry x="1" relative="1" as="geometry">
            <mxPoint y="0.2400000000000002" as="offset" />
          </mxGeometry>
        </mxCell>
        <mxCell id="2nq9K5lRdLXZoBIddekR-40" value="" style="endArrow=oval;html=1;rounded=0;strokeColor=#000000;exitX=0;exitY=0.25;exitDx=0;exitDy=0;endFill=0;" parent="1" edge="1">
          <mxGeometry relative="1" as="geometry">
            <mxPoint x="1650" y="399.7500000000001" as="sourcePoint" />
            <mxPoint x="1610" y="400.25" as="targetPoint" />
          </mxGeometry>
        </mxCell>
        <mxCell id="2nq9K5lRdLXZoBIddekR-41" value="Piattaforma" style="resizable=0;align=right;verticalAlign=middle;fontColor=#000000;html=1;spacingRight=6;spacingBottom=4;" parent="2nq9K5lRdLXZoBIddekR-40" connectable="0" vertex="1">
          <mxGeometry x="1" relative="1" as="geometry">
            <mxPoint y="0.2400000000000002" as="offset" />
          </mxGeometry>
        </mxCell>
        <mxCell id="2nq9K5lRdLXZoBIddekR-42" value="" style="endArrow=oval;html=1;rounded=0;strokeColor=#000000;exitX=0;exitY=0.25;exitDx=0;exitDy=0;endFill=0;dashed=1;dashPattern=1 2;" parent="1" edge="1">
          <mxGeometry relative="1" as="geometry">
            <mxPoint x="1650" y="420.0000000000001" as="sourcePoint" />
            <mxPoint x="1610" y="420.5" as="targetPoint" />
          </mxGeometry>
        </mxCell>
        <mxCell id="2nq9K5lRdLXZoBIddekR-43" value="Box art" style="resizable=0;align=right;verticalAlign=middle;fontColor=#000000;html=1;spacingRight=6;spacingBottom=4;" parent="2nq9K5lRdLXZoBIddekR-42" connectable="0" vertex="1">
          <mxGeometry x="1" relative="1" as="geometry">
            <mxPoint y="0.2400000000000002" as="offset" />
          </mxGeometry>
        </mxCell>
        <mxCell id="2nq9K5lRdLXZoBIddekR-44" value="" style="endArrow=oval;html=1;rounded=0;strokeColor=#000000;exitX=0;exitY=0.25;exitDx=0;exitDy=0;endFill=0;dashed=1;dashPattern=1 2;" parent="1" edge="1">
          <mxGeometry relative="1" as="geometry">
            <mxPoint x="1650" y="380.0000000000001" as="sourcePoint" />
            <mxPoint x="1610" y="380.5" as="targetPoint" />
          </mxGeometry>
        </mxCell>
        <mxCell id="2nq9K5lRdLXZoBIddekR-45" value="Titolo alternativo" style="resizable=0;align=right;verticalAlign=middle;fontColor=#000000;html=1;spacingRight=6;spacingBottom=4;" parent="2nq9K5lRdLXZoBIddekR-44" connectable="0" vertex="1">
          <mxGeometry x="1" relative="1" as="geometry">
            <mxPoint y="0.2400000000000002" as="offset" />
          </mxGeometry>
        </mxCell>
        <mxCell id="HsYmEjlflIflnXeWbHsx-1" value="" style="endArrow=oval;html=1;rounded=0;strokeColor=#000000;exitX=0;exitY=0.5;exitDx=0;exitDy=0;endFill=0;" edge="1" parent="1">
          <mxGeometry relative="1" as="geometry">
            <mxPoint x="240" y="590.55" as="sourcePoint" />
            <mxPoint x="220" y="590" as="targetPoint" />
          </mxGeometry>
        </mxCell>
        <mxCell id="HsYmEjlflIflnXeWbHsx-2" value="&lt;div&gt;Titolo primario&lt;/div&gt;" style="resizable=0;align=right;verticalAlign=middle;fontColor=#000000;html=1;spacingRight=6;spacingBottom=4;" connectable="0" vertex="1" parent="HsYmEjlflIflnXeWbHsx-1">
          <mxGeometry x="1" relative="1" as="geometry">
            <mxPoint y="0.2400000000000002" as="offset" />
          </mxGeometry>
        </mxCell>
        <mxCell id="HsYmEjlflIflnXeWbHsx-5" value="" style="endArrow=oval;html=1;rounded=0;strokeColor=#000000;exitX=0;exitY=0.5;exitDx=0;exitDy=0;endFill=0;" edge="1" parent="1">
          <mxGeometry relative="1" as="geometry">
            <mxPoint x="50" y="650.55" as="sourcePoint" />
            <mxPoint x="10" y="650" as="targetPoint" />
          </mxGeometry>
        </mxCell>
        <mxCell id="HsYmEjlflIflnXeWbHsx-6" value="Nome" style="resizable=0;align=right;verticalAlign=middle;fontColor=#000000;html=1;spacingRight=6;spacingBottom=4;" connectable="0" vertex="1" parent="HsYmEjlflIflnXeWbHsx-5">
          <mxGeometry x="1" relative="1" as="geometry">
            <mxPoint y="0.2400000000000002" as="offset" />
          </mxGeometry>
        </mxCell>
        <mxCell id="HsYmEjlflIflnXeWbHsx-9" value="" style="endArrow=oval;html=1;rounded=0;strokeColor=#000000;exitX=0;exitY=0.5;exitDx=0;exitDy=0;endFill=0;" edge="1" parent="1">
          <mxGeometry relative="1" as="geometry">
            <mxPoint x="240" y="770.2599999999998" as="sourcePoint" />
            <mxPoint x="200" y="769.7099999999998" as="targetPoint" />
          </mxGeometry>
        </mxCell>
        <mxCell id="HsYmEjlflIflnXeWbHsx-10" value="Nome" style="resizable=0;align=right;verticalAlign=middle;fontColor=#000000;html=1;spacingRight=6;spacingBottom=4;" connectable="0" vertex="1" parent="HsYmEjlflIflnXeWbHsx-9">
          <mxGeometry x="1" relative="1" as="geometry">
            <mxPoint y="0.2400000000000002" as="offset" />
          </mxGeometry>
        </mxCell>
        <mxCell id="HsYmEjlflIflnXeWbHsx-11" value="" style="endArrow=oval;html=1;rounded=0;strokeColor=#FF7F00;exitX=0;exitY=0.5;exitDx=0;exitDy=0;endFill=1;" edge="1" parent="1">
          <mxGeometry relative="1" as="geometry">
            <mxPoint x="240" y="749.71" as="sourcePoint" />
            <mxPoint x="200" y="749.9999999999998" as="targetPoint" />
          </mxGeometry>
        </mxCell>
        <mxCell id="HsYmEjlflIflnXeWbHsx-12" value="ID" style="resizable=0;align=right;verticalAlign=middle;fontColor=#FF7F00;html=1;spacingRight=6;spacingBottom=4;" connectable="0" vertex="1" parent="HsYmEjlflIflnXeWbHsx-11">
          <mxGeometry x="1" relative="1" as="geometry">
            <mxPoint y="0.2400000000000002" as="offset" />
          </mxGeometry>
        </mxCell>
        <mxCell id="HsYmEjlflIflnXeWbHsx-13" value="" style="endArrow=oval;html=1;rounded=0;strokeColor=#000000;exitX=0;exitY=0.5;exitDx=0;exitDy=0;endFill=0;" edge="1" parent="1">
          <mxGeometry relative="1" as="geometry">
            <mxPoint x="740" y="510.2599999999997" as="sourcePoint" />
            <mxPoint x="700" y="509.70999999999975" as="targetPoint" />
          </mxGeometry>
        </mxCell>
        <mxCell id="HsYmEjlflIflnXeWbHsx-14" value="Nome" style="resizable=0;align=right;verticalAlign=middle;fontColor=#000000;html=1;spacingRight=6;spacingBottom=4;" connectable="0" vertex="1" parent="HsYmEjlflIflnXeWbHsx-13">
          <mxGeometry x="1" relative="1" as="geometry">
            <mxPoint y="0.2400000000000002" as="offset" />
          </mxGeometry>
        </mxCell>
        <mxCell id="HsYmEjlflIflnXeWbHsx-15" value="" style="endArrow=oval;html=1;rounded=0;strokeColor=#FF7F00;exitX=0;exitY=0.5;exitDx=0;exitDy=0;endFill=1;" edge="1" parent="1">
          <mxGeometry relative="1" as="geometry">
            <mxPoint x="740" y="489.71" as="sourcePoint" />
            <mxPoint x="700" y="489.9999999999997" as="targetPoint" />
          </mxGeometry>
        </mxCell>
        <mxCell id="HsYmEjlflIflnXeWbHsx-16" value="ID" style="resizable=0;align=right;verticalAlign=middle;fontColor=#FF7F00;html=1;spacingRight=6;spacingBottom=4;" connectable="0" vertex="1" parent="HsYmEjlflIflnXeWbHsx-15">
          <mxGeometry x="1" relative="1" as="geometry">
            <mxPoint y="0.2400000000000002" as="offset" />
          </mxGeometry>
        </mxCell>
        <mxCell id="HsYmEjlflIflnXeWbHsx-17" value="" style="endArrow=oval;html=1;rounded=0;strokeColor=#000000;exitX=0;exitY=0.5;exitDx=0;exitDy=0;endFill=0;" edge="1" parent="1">
          <mxGeometry relative="1" as="geometry">
            <mxPoint x="880" y="599.9799999999997" as="sourcePoint" />
            <mxPoint x="840" y="599.4299999999997" as="targetPoint" />
          </mxGeometry>
        </mxCell>
        <mxCell id="HsYmEjlflIflnXeWbHsx-18" value="Nome" style="resizable=0;align=right;verticalAlign=middle;fontColor=#000000;html=1;spacingRight=6;spacingBottom=4;" connectable="0" vertex="1" parent="HsYmEjlflIflnXeWbHsx-17">
          <mxGeometry x="1" relative="1" as="geometry">
            <mxPoint y="0.2400000000000002" as="offset" />
          </mxGeometry>
        </mxCell>
        <mxCell id="HsYmEjlflIflnXeWbHsx-19" value="" style="endArrow=oval;html=1;rounded=0;strokeColor=#FF7F00;exitX=0;exitY=0.5;exitDx=0;exitDy=0;endFill=1;" edge="1" parent="1">
          <mxGeometry relative="1" as="geometry">
            <mxPoint x="880" y="579.43" as="sourcePoint" />
            <mxPoint x="840" y="579.7199999999997" as="targetPoint" />
          </mxGeometry>
        </mxCell>
        <mxCell id="HsYmEjlflIflnXeWbHsx-20" value="ID" style="resizable=0;align=right;verticalAlign=middle;fontColor=#FF7F00;html=1;spacingRight=6;spacingBottom=4;" connectable="0" vertex="1" parent="HsYmEjlflIflnXeWbHsx-19">
          <mxGeometry x="1" relative="1" as="geometry">
            <mxPoint y="0.2400000000000002" as="offset" />
          </mxGeometry>
        </mxCell>
        <mxCell id="HsYmEjlflIflnXeWbHsx-25" value="" style="endArrow=oval;html=1;rounded=0;strokeColor=#000000;exitX=0;exitY=0.5;exitDx=0;exitDy=0;endFill=0;" edge="1" parent="1">
          <mxGeometry relative="1" as="geometry">
            <mxPoint x="1650" y="590.5499999999997" as="sourcePoint" />
            <mxPoint x="1610" y="589.9999999999998" as="targetPoint" />
          </mxGeometry>
        </mxCell>
        <mxCell id="HsYmEjlflIflnXeWbHsx-26" value="Nome" style="resizable=0;align=right;verticalAlign=middle;fontColor=#000000;html=1;spacingRight=6;spacingBottom=4;" connectable="0" vertex="1" parent="HsYmEjlflIflnXeWbHsx-25">
          <mxGeometry x="1" relative="1" as="geometry">
            <mxPoint y="0.2400000000000002" as="offset" />
          </mxGeometry>
        </mxCell>
        <mxCell id="HsYmEjlflIflnXeWbHsx-27" value="" style="endArrow=oval;html=1;rounded=0;strokeColor=#FF7F00;exitX=0;exitY=0.5;exitDx=0;exitDy=0;endFill=1;" edge="1" parent="1">
          <mxGeometry relative="1" as="geometry">
            <mxPoint x="1650" y="570" as="sourcePoint" />
            <mxPoint x="1610" y="570.2899999999997" as="targetPoint" />
          </mxGeometry>
        </mxCell>
        <mxCell id="HsYmEjlflIflnXeWbHsx-28" value="ID" style="resizable=0;align=right;verticalAlign=middle;fontColor=#FF7F00;html=1;spacingRight=6;spacingBottom=4;" connectable="0" vertex="1" parent="HsYmEjlflIflnXeWbHsx-27">
          <mxGeometry x="1" relative="1" as="geometry">
            <mxPoint y="0.2400000000000002" as="offset" />
          </mxGeometry>
        </mxCell>
        <mxCell id="HsYmEjlflIflnXeWbHsx-33" value="" style="endArrow=oval;html=1;rounded=0;strokeColor=#000000;exitX=1;exitY=0.75;exitDx=0;exitDy=0;endFill=0;" edge="1" parent="1">
          <mxGeometry relative="1" as="geometry">
            <mxPoint x="1250" y="510" as="sourcePoint" />
            <mxPoint x="1280" y="510" as="targetPoint" />
          </mxGeometry>
        </mxCell>
        <mxCell id="HsYmEjlflIflnXeWbHsx-34" value="Nome" style="resizable=0;align=left;verticalAlign=middle;fontColor=#000000;html=1;spacingRight=0;spacingBottom=4;spacingLeft=6;" connectable="0" vertex="1" parent="HsYmEjlflIflnXeWbHsx-33">
          <mxGeometry x="1" relative="1" as="geometry">
            <mxPoint y="0.2400000000000002" as="offset" />
          </mxGeometry>
        </mxCell>
        <mxCell id="HsYmEjlflIflnXeWbHsx-35" value="" style="endArrow=oval;html=1;rounded=0;strokeColor=#FF7F00;exitX=1;exitY=0.5;exitDx=0;exitDy=0;endFill=1;" edge="1" parent="1">
          <mxGeometry relative="1" as="geometry">
            <mxPoint x="2130" y="585" as="sourcePoint" />
            <mxPoint x="2160.0000000000005" y="585.2900000000002" as="targetPoint" />
          </mxGeometry>
        </mxCell>
        <mxCell id="HsYmEjlflIflnXeWbHsx-36" value="ID" style="resizable=0;align=left;verticalAlign=middle;fontColor=#FF7F00;html=1;spacingRight=0;spacingBottom=4;spacingLeft=6;" connectable="0" vertex="1" parent="HsYmEjlflIflnXeWbHsx-35">
          <mxGeometry x="1" relative="1" as="geometry">
            <mxPoint y="2.220446049250313e-16" as="offset" />
          </mxGeometry>
        </mxCell>
        <mxCell id="HsYmEjlflIflnXeWbHsx-37" value="" style="endArrow=oval;html=1;rounded=0;strokeColor=#000000;exitX=1;exitY=0.75;exitDx=0;exitDy=0;endFill=0;" edge="1" parent="1">
          <mxGeometry relative="1" as="geometry">
            <mxPoint x="2130.0000000000005" y="605.2900000000002" as="sourcePoint" />
            <mxPoint x="2160.0000000000005" y="605.2900000000002" as="targetPoint" />
          </mxGeometry>
        </mxCell>
        <mxCell id="HsYmEjlflIflnXeWbHsx-38" value="Nome" style="resizable=0;align=left;verticalAlign=middle;fontColor=#000000;html=1;spacingRight=0;spacingBottom=4;spacingLeft=6;" connectable="0" vertex="1" parent="HsYmEjlflIflnXeWbHsx-37">
          <mxGeometry x="1" relative="1" as="geometry">
            <mxPoint y="0.2400000000000002" as="offset" />
          </mxGeometry>
        </mxCell>
        <mxCell id="HsYmEjlflIflnXeWbHsx-40" value="" style="endArrow=oval;html=1;rounded=0;strokeColor=#FF7F00;exitX=1;exitY=0.5;exitDx=0;exitDy=0;endFill=1;" edge="1" parent="1">
          <mxGeometry relative="1" as="geometry">
            <mxPoint x="1419.9999999999995" y="399.1399999999998" as="sourcePoint" />
            <mxPoint x="1450" y="399.43" as="targetPoint" />
          </mxGeometry>
        </mxCell>
        <mxCell id="HsYmEjlflIflnXeWbHsx-41" value="ID" style="resizable=0;align=left;verticalAlign=middle;fontColor=#FF7F00;html=1;spacingRight=0;spacingBottom=4;spacingLeft=6;" connectable="0" vertex="1" parent="HsYmEjlflIflnXeWbHsx-40">
          <mxGeometry x="1" relative="1" as="geometry">
            <mxPoint y="2.220446049250313e-16" as="offset" />
          </mxGeometry>
        </mxCell>
        <mxCell id="HsYmEjlflIflnXeWbHsx-42" value="" style="endArrow=oval;html=1;rounded=0;strokeColor=#000000;exitX=1;exitY=0.75;exitDx=0;exitDy=0;endFill=0;" edge="1" parent="1">
          <mxGeometry relative="1" as="geometry">
            <mxPoint x="1420" y="419.43" as="sourcePoint" />
            <mxPoint x="1450" y="419.43" as="targetPoint" />
          </mxGeometry>
        </mxCell>
        <mxCell id="HsYmEjlflIflnXeWbHsx-43" value="Nome" style="resizable=0;align=left;verticalAlign=middle;fontColor=#000000;html=1;spacingRight=0;spacingBottom=4;spacingLeft=6;" connectable="0" vertex="1" parent="HsYmEjlflIflnXeWbHsx-42">
          <mxGeometry x="1" relative="1" as="geometry">
            <mxPoint y="0.2400000000000002" as="offset" />
          </mxGeometry>
        </mxCell>
        <mxCell id="HsYmEjlflIflnXeWbHsx-49" value="" style="endArrow=oval;html=1;rounded=0;strokeColor=#FF7F00;exitX=1;exitY=0.5;exitDx=0;exitDy=0;endFill=1;" edge="1" parent="1">
          <mxGeometry relative="1" as="geometry">
            <mxPoint x="510" y="659.57" as="sourcePoint" />
            <mxPoint x="540.0000000000005" y="659.8600000000002" as="targetPoint" />
          </mxGeometry>
        </mxCell>
        <mxCell id="HsYmEjlflIflnXeWbHsx-50" value="ID" style="resizable=0;align=left;verticalAlign=middle;fontColor=#FF7F00;html=1;spacingRight=0;spacingBottom=4;spacingLeft=6;" connectable="0" vertex="1" parent="HsYmEjlflIflnXeWbHsx-49">
          <mxGeometry x="1" relative="1" as="geometry">
            <mxPoint y="2.220446049250313e-16" as="offset" />
          </mxGeometry>
        </mxCell>
        <mxCell id="HsYmEjlflIflnXeWbHsx-51" value="" style="endArrow=oval;html=1;rounded=0;strokeColor=#000000;exitX=1;exitY=0.75;exitDx=0;exitDy=0;endFill=0;" edge="1" parent="1">
          <mxGeometry relative="1" as="geometry">
            <mxPoint x="510.00000000000045" y="679.8600000000002" as="sourcePoint" />
            <mxPoint x="540.0000000000005" y="679.8600000000002" as="targetPoint" />
          </mxGeometry>
        </mxCell>
        <mxCell id="HsYmEjlflIflnXeWbHsx-52" value="Nome" style="resizable=0;align=left;verticalAlign=middle;fontColor=#000000;html=1;spacingRight=0;spacingBottom=4;spacingLeft=6;" connectable="0" vertex="1" parent="HsYmEjlflIflnXeWbHsx-51">
          <mxGeometry x="1" relative="1" as="geometry">
            <mxPoint y="0.2400000000000002" as="offset" />
          </mxGeometry>
        </mxCell>
      </root>
    </mxGraphModel>
  </diagram>
</mxfile>
